<svg xmlns="http://www.w3.org/2000/svg" class="injected-svg" data-src="https://preview.pixlr.com/images/svg/100/1/87410eb80ab93a61a95f3c51abcfbbd2653b3e349122342a5830b399aa0486d1.svg" xmlns:xlink="http://www.w3.org/1999/xlink" id="svg-edited-version" viewBox="0 0 793.707 793.707">
    <path d="M710.847 684.687h8.72v-8.734h-8.72v8.734" fill="#b44d2d" originalFill="#b44d2d"/>
    <path d="M710.847 675.953h8.72v-8.72h-8.72v8.72" fill="#8c3f1c" originalFill="#8c3f1c"/>
    <path d="M710.847 667.233h8.72v-8.72h-8.72v8.72" fill="#a04826" originalFill="#a04826"/>
    <path d="M710.847 658.513h8.72v-8.72h-8.72v8.72" fill="#8c3f1c" originalFill="#8c3f1c"/>
    <path d="M710.847 649.793h8.72v-8.72h-8.72v8.72" fill="#a04826" originalFill="#a04826"/>
    <path d="M710.847 641.073h8.72v-8.72h-8.72v8.72" fill="#8c3f1c" originalFill="#8c3f1c"/>
    <path d="M710.847 632.353h8.72v-8.72h-8.72v8.72" fill="#a04826" originalFill="#a04826"/>
    <path d="M710.847 623.633h8.72V614.9h-8.72v8.733" fill="#8c3f1c" originalFill="#8c3f1c"/>
    <path d="M710.847 614.9h8.72v-8.72h-8.72v8.72" fill="#b44d2d" originalFill="#b44d2d"/>
    <path d="M702.127 675.953h-8.734v8.734h17.454v-8.734h-8.72m8.72-61.053v-8.72h-8.72v8.72h8.72" fill="#8c3f1c" originalFill="#8c3f1c"/>
    <path d="M693.393 684.687H623.62v8.72h87.227v-8.72h-17.454" fill="#6d2b17" originalFill="#6d2b17"/>
    <path d="M702.127 632.353v34.88h-43.614v-43.6h43.614zm-8.734-17.453h-43.6v61.053h61.054V614.9h-17.454" fill="#f57a14" originalFill="#f57a14"/>
    <path d="M702.127 614.9v-8.72h-8.734v8.72h8.734" fill="#a04826" originalFill="#a04826"/>
    <path d="M702.127 571.3v-8.733h-8.734v8.733h8.734" fill="#f57a14" originalFill="#f57a14"/>
    <path d="M684.673 728.287h8.72v-8.72h-8.72v8.72" fill="#54252a" originalFill="#54252a"/>
    <path d="M693.393 719.567v-8.72h-8.72v8.72h8.72" fill="#632c35" originalFill="#632c35"/>
    <path d="M684.673 684.687h8.72v-8.734h-8.72v8.734" fill="#a04826" originalFill="#a04826"/>
    <path d="M684.673 649.793h8.72v-8.72h-8.72v8.72" fill="#f3b90f" originalFill="#f3b90f"/>
    <path d="M693.393 649.793h-8.72v-8.72h8.72zm-8.72-26.16v8.72h-8.72v26.16h-8.72v-26.16h-8.72v34.88h43.614v-43.6h-17.454" fill="#f79d0f" originalFill="#f79d0f"/>
    <path d="M693.393 614.9v-8.72h-8.72v8.72h8.72" fill="#8c3f1c" originalFill="#8c3f1c"/>
    <path d="M693.393 597.46v-8.72h-8.72v8.72h8.72" fill="#7a9c29" originalFill="#7a9c29"/>
    <path d="M684.673 571.3h8.72v-8.733h-8.72v8.733" fill="#f79d0f" originalFill="#f79d0f"/>
    <path d="M693.393 562.567v-8.72h-8.72v8.72h8.72" fill="#f3b90f" originalFill="#f3b90f"/>
    <path d="M684.673 457.913h8.72v-8.72h-8.72v8.72" fill="#712e18" originalFill="#712e18"/>
    <path d="M684.673 440.46v8.733h8.72V431.74h-8.72v8.72" fill="#8c3f1c" originalFill="#8c3f1c"/>
    <path d="M684.673 431.74h8.72v-8.72h-8.72v8.72" fill="#712e18" originalFill="#712e18"/>
    <path d="M684.673 414.3v8.72h8.72v-17.44h-8.72v8.72" fill="#8c3f1c" originalFill="#8c3f1c"/>
    <path d="M684.673 405.58h8.72v-8.72h-8.72v8.72" fill="#a25239" originalFill="#a25239"/>
    <path d="M684.673 379.407v17.453h8.72v-26.173h-8.72v8.72" fill="#8c3f1c" originalFill="#8c3f1c"/>
    <path d="M684.673 370.687h8.72v-8.72h-8.72v8.72" fill="#712e18" originalFill="#712e18"/>
    <path d="M684.673 344.527v17.44h8.72v-26.16h-8.72v8.72" fill="#8c3f1c" originalFill="#8c3f1c"/>
    <path d="M693.393 335.807v-8.734h-8.72v8.734h8.72" fill="#712e18" originalFill="#712e18"/>
    <path d="M675.953 719.567h8.72v-8.72h-8.72v8.72" fill="#54252a" originalFill="#54252a"/>
    <path d="M684.673 710.847v-8.72h-8.72v8.72h8.72" fill="#6c333f" originalFill="#6c333f"/>
    <path d="M675.953 675.953v8.734h8.72v-8.734h-8.72" fill="#8c3f1c" originalFill="#8c3f1c"/>
    <path d="M684.673 632.353v-8.72h-8.72v8.72h8.72" fill="#f3b90f" originalFill="#f3b90f"/>
    <path d="M675.953 606.18h8.72v-8.72h-8.72v8.72" fill="#69902b" originalFill="#69902b"/>
    <path d="M684.673 588.74v-8.72h-8.72v8.72h8.72" fill="#a2cc32" originalFill="#a2cc32"/>
    <path d="M675.953 562.567v8.733h8.72v-8.733h-8.72" fill="#f57a14" originalFill="#f57a14"/>
    <path d="M684.673 553.847v-8.72h-8.72v8.72h8.72" fill="#f3b90f" originalFill="#f3b90f"/>
    <path d="M675.953 449.193v8.72h8.72v-8.72h-8.72" fill="#8c3f1c" originalFill="#8c3f1c"/>
    <path d="M675.953 431.74v8.72h8.72v-17.44h-8.72v8.72" fill="#5d3138" originalFill="#5d3138"/>
    <path d="M675.953 423.02h8.72v-8.72h-8.72v8.72" fill="#54252a" originalFill="#54252a"/>
    <path d="M675.953 414.3h8.72v-8.72h-8.72v8.72" fill="#5d3138" originalFill="#5d3138"/>
    <path d="M675.953 396.86v8.72h8.72v-17.453h-8.72v8.733" fill="#54252a" originalFill="#54252a"/>
    <path d="M675.953 388.127h8.72v-8.72h-8.72v8.72" fill="#5d3138" originalFill="#5d3138"/>
    <path d="M675.953 370.687v8.72h8.72v-17.44h-8.72v8.72" fill="#54252a" originalFill="#54252a"/>
    <path d="M675.953 353.247v8.72h8.72v-17.44h-8.72v8.72" fill="#5d3138" originalFill="#5d3138"/>
    <path d="M675.953 239.86h8.72v-8.72h-8.72v8.72" fill="#471b16" originalFill="#471b16"/>
    <path d="M675.953 204.967h8.72v-8.72h-8.72v8.72m8.72-26.16v-8.72h-8.72v8.72h8.72" fill="#803621" originalFill="#803621"/>
    <path d="M667.233 710.847h8.72v-8.72h-8.72v8.72" fill="#54252a" originalFill="#54252a"/>
    <path d="M667.233 675.953h-8.72v8.734h17.44v-8.734h-8.72" fill="#a04826" originalFill="#a04826"/>
    <path d="M667.233 658.513h8.72v-8.72h-8.72v8.72" fill="#f3b90f" originalFill="#f3b90f"/>
    <path d="M667.233 641.073v8.72h8.72v-17.44h-8.72v8.72" fill="#6d2b17" originalFill="#6d2b17"/>
    <path d="M675.953 632.353v-8.72h-8.72v8.72h8.72" fill="#f79d0f" originalFill="#f79d0f"/>
    <path d="M667.233 606.18v8.72h17.44v-8.72h-17.44" fill="#a04826" originalFill="#a04826"/>
    <path d="M675.953 597.46h-8.72v8.72h8.72v-8.72" fill="#7a9c29" originalFill="#7a9c29"/>
    <path d="M675.953 597.46h8.72v-8.72h-8.72v-8.72h-8.72v8.72h-8.72v8.72h17.44" fill="#8dbb25" originalFill="#8dbb25"/>
    <path d="M675.953 571.3h-8.72v8.72h8.72v-8.72" fill="#b9a88a" originalFill="#b9a88a"/>
    <path d="M675.953 562.567h8.72v-8.72h-17.44V571.3h8.72v-8.733" fill="#f79d0f" originalFill="#f79d0f"/>
    <path d="M675.953 553.847v-8.72h-8.72v8.72h8.72" fill="#f8a324" originalFill="#f8a324"/>
    <path d="M667.233 457.913H457.9v8.72h226.773v-8.72h-17.44" fill="#fff" originalFill="#fff"/>
    <path d="M667.233 457.913h8.72v-8.72h-8.72v8.72" fill="#712e18" originalFill="#712e18"/>
    <path d="M667.233 440.46v8.733h17.44v-8.733h-17.44" fill="#54252a" originalFill="#54252a"/>
    <path d="M667.233 431.74v8.72h8.72v-17.44h-8.72v8.72m0-26.16v8.72h8.72v-17.44h-8.72v8.72" fill="#cbad87" originalFill="#cbad87"/>
    <path d="M667.233 396.86h8.72v-8.733h-8.72v8.733" fill="#dec29a" originalFill="#dec29a"/>
    <path d="M667.233 379.407v8.72h8.72v-17.44h-8.72v8.72m0-17.44h8.72v-17.44h-8.72v17.44" fill="#cbad87" originalFill="#cbad87"/>
    <path d="M675.953 344.527h8.72v-8.72h-17.44v8.72h8.72" fill="#54252a" originalFill="#54252a"/>
    <path d="M675.953 335.807h8.72v-8.734h-17.44v8.734h8.72" fill="#8c3f1c" originalFill="#8c3f1c"/>
    <path d="M667.233 248.58h8.72v-8.72h-8.72v8.72" fill="#4a1d15" originalFill="#4a1d15"/>
    <path d="M667.233 231.14h-8.72v8.72h17.44v-8.72h-8.72" fill="#5d2518" originalFill="#5d2518"/>
    <path d="M667.233 187.527v8.72h8.72v-8.72h-8.72" fill="#803621" originalFill="#803621"/>
    <path d="M667.233 178.807v8.72h8.72v8.72h8.72v-17.44h-8.72v-8.72h-8.72v8.72" fill="#712e18" originalFill="#712e18"/>
    <path d="M667.233 170.087h8.72v-8.72h-8.72v8.72" fill="#803621" originalFill="#803621"/>
    <path d="M667.233 161.367h8.72v-8.734h-8.72v8.734" fill="#61bea8" originalFill="#61bea8"/>
    <path d="M675.953 152.633v-8.72h-8.72v8.72h8.72" fill="#6bc7ad" originalFill="#6bc7ad"/>
    <path d="M658.513 693.407v8.72h17.44v-8.72h-17.44" fill="#3d1c1e" originalFill="#3d1c1e"/>
    <path d="M667.233 623.633h-8.72v8.72h8.72v-8.72" fill="#f3b90f" originalFill="#f3b90f"/>
    <path d="M667.233 597.46h-8.72v8.72h8.72v-8.72" fill="#69902b" originalFill="#69902b"/>
    <path d="M667.233 580.02h-8.72v8.72h8.72v-8.72" fill="#a2cc32" originalFill="#a2cc32"/>
    <path d="M658.513 562.567v8.733h8.72v-8.733h-8.72" fill="#f57a14" originalFill="#f57a14"/>
    <path d="M667.233 562.567v-8.72h-8.72v8.72h8.72" fill="#f8a324" originalFill="#f8a324"/>
    <path d="M667.233 545.127h-8.72v8.72h8.72v-8.72" fill="#f3b90f" originalFill="#f3b90f"/>
    <path d="M658.513 449.193H632.34v8.72h34.893v-8.72h-8.72" fill="#8c3f1c" originalFill="#8c3f1c"/>
    <path d="M658.513 396.86v8.72h8.72v-8.72h-8.72" fill="#783019" originalFill="#783019"/>
    <path d="M667.233 388.127v-8.72h-8.72v17.453h8.72v-8.733" fill="#8c3f1c" originalFill="#8c3f1c"/>
    <path d="M667.233 344.527v-8.72h-8.72v8.72h8.72" fill="#5d3138" originalFill="#5d3138"/>
    <path d="M667.233 335.807v-8.734h-8.72v8.734h8.72" fill="#712e18" originalFill="#712e18"/>
    <path d="M658.513 213.687h8.72v-8.72h-8.72v8.72" fill="#6ec3ae" originalFill="#6ec3ae"/>
    <path d="M658.513 187.527v8.72H641.06v-8.72h-8.72v17.44h17.453v8.72h8.72v-8.72h8.72v-17.44h-8.72" fill="#80d3bf" originalFill="#80d3bf"/>
    <path d="M658.513 152.633v8.734h8.72v-8.734h-8.72m8.72-8.72v-8.72h-8.72v8.72h8.72" fill="#6bc7ad" originalFill="#6bc7ad"/>
    <path d="M649.793 675.953v8.734h8.72v-8.734h-8.72m8.72-61.053h8.72v-8.72h-17.44v8.72h8.72" fill="#8c3f1c" originalFill="#8c3f1c"/>
    <path d="M649.793 588.74v8.72h8.72v-8.72h-8.72" fill="#7a9c29" originalFill="#7a9c29"/>
    <path d="M649.793 562.567v8.733h8.72v-8.733h-8.72" fill="#f79d0f" originalFill="#f79d0f"/>
    <path d="M658.513 553.847h-8.72v8.72h8.72v-8.72" fill="#f3b90f" originalFill="#f3b90f"/>
    <path d="M649.793 440.46v8.733h17.44v-8.733h-17.44" fill="#5d3138" originalFill="#5d3138"/>
    <path d="M658.513 431.74h-8.72v8.72h8.72v-8.72" fill="#cbad87" originalFill="#cbad87"/>
    <path d="M649.793 414.3h8.72v-8.72h-8.72v8.72" fill="#f0d7bb" originalFill="#f0d7bb"/>
    <path d="M649.793 353.247v17.44h-8.733v8.72h8.733v8.72h-8.733v-8.72h-8.72v8.72h-8.72v8.733h-8.72v8.72h8.72v17.44h-8.72v8.72h26.16v8.72h8.733v-8.72h8.72v8.72h8.72v-17.44h8.72v-8.72h-8.72v-8.72h-8.72v8.72h-8.72v-8.72h8.72v-26.173h8.72v-8.72h8.72v-8.72h-8.72v-17.44h-8.72v8.72h-8.72" fill="#dec29a" originalFill="#dec29a"/>
    <path d="M649.793 231.14v8.72h8.72v-8.72h-8.72" fill="#682c20" originalFill="#682c20"/>
    <path d="M649.793 213.687H588.74v8.733h78.493v-8.733h-17.44" fill="#5d2518" originalFill="#5d2518"/>
    <path d="M641.06 675.953v8.734h8.733v-8.734h-8.733" fill="#b44d2d" originalFill="#b44d2d"/>
    <path d="M641.06 667.233v8.72h8.733v-17.44h-8.733v8.72" fill="#8c3f1c" originalFill="#8c3f1c"/>
    <path d="M641.06 658.513h8.733v-8.72h-8.733v8.72" fill="#a04826" originalFill="#a04826"/>
    <path d="M641.06 649.793h8.733v-8.72h-8.733v8.72" fill="#8c3f1c" originalFill="#8c3f1c"/>
    <path d="M641.06 641.073h8.733v-8.72h-8.733v8.72" fill="#a04826" originalFill="#a04826"/>
    <path d="M641.06 632.353h8.733V614.9h-8.733v17.453" fill="#8c3f1c" originalFill="#8c3f1c"/>
    <path d="M649.793 614.9v-8.72h-8.733v8.72h8.733" fill="#b44d2d" originalFill="#b44d2d"/>
    <path d="M641.06 562.567v8.733h8.733v-8.733h-8.733" fill="#f57a14" originalFill="#f57a14"/>
    <path d="M641.06 440.46h-17.44v8.733h26.173v-8.733h-8.733" fill="#54252a" originalFill="#54252a"/>
    <path d="M649.793 388.127v-8.72h-8.733v8.72h8.733m-8.733-17.44h8.733v-17.44h-8.733v17.44" fill="#f0d7bb" originalFill="#f0d7bb"/>
    <path d="M649.793 344.527h8.72v-8.72H641.06v8.72h8.733" fill="#54252a" originalFill="#54252a"/>
    <path d="M641.06 231.14h-8.72v8.72h17.453v-8.72h-8.733" fill="#5d2518" originalFill="#5d2518"/>
    <path d="M641.06 187.527v8.72h17.453v-8.72H641.06" fill="#98dcc9" originalFill="#98dcc9"/>
    <path d="M649.793 161.367v-8.734h-8.733v8.734h8.733" fill="#54252a" originalFill="#54252a"/>
    <path d="M649.793 143.913v-8.72h-8.733v8.72h8.733" fill="#6bc7ad" originalFill="#6bc7ad"/>
    <path d="M632.34 675.953H527.687v8.734H641.06v-8.734h-8.72" fill="#8c3f1c" originalFill="#8c3f1c"/>
    <path d="M632.34 667.233v-8.72h-8.72v8.72h-8.72v8.72h26.16v-8.72h-8.72" fill="#3d1c1e" originalFill="#3d1c1e"/>
    <path d="M641.06 667.233v-8.72h-8.72v8.72h8.72" fill="#54252a" originalFill="#54252a"/>
    <path d="M641.06 649.793h-8.72v8.72h8.72v-8.72m0-26.16V614.9h-8.72v8.733h8.72" fill="#3d1c1e" originalFill="#3d1c1e"/>
    <path d="M632.34 379.407h8.72v-8.72h-8.72v8.72" fill="#f0d7bb" originalFill="#f0d7bb"/>
    <path d="M632.34 370.687h8.72v-17.44h-8.72v17.44" fill="#dec29a" originalFill="#dec29a"/>
    <path d="M641.06 353.247h17.453v-8.72H632.34v8.72h8.72" fill="#cbad87" originalFill="#cbad87"/>
    <path d="M641.06 213.687h8.733v-8.72H632.34v8.72h8.72" fill="#6ec3ae" originalFill="#6ec3ae"/>
    <path d="M641.06 161.367v-8.734h-8.72v8.734h8.72" fill="#6bc7ad" originalFill="#6bc7ad"/>
    <path d="M623.62 632.353h8.72v-8.72h-8.72v8.72" fill="#3d1c1e" originalFill="#3d1c1e"/>
    <path d="M632.34 623.633V614.9h-8.72v8.733h8.72" fill="#54252a" originalFill="#54252a"/>
    <path d="M623.62 449.193v8.72h8.72v-8.72h-8.72" fill="#a25239" originalFill="#a25239"/>
    <path d="M623.62 388.127h8.72v-8.72h-8.72v8.72m8.72-17.44v-17.44h-8.72v17.44h8.72" fill="#f0d7bb" originalFill="#f0d7bb"/>
    <path d="M632.34 353.247v-8.72h-8.72v8.72h8.72" fill="#dec29a" originalFill="#dec29a"/>
    <path d="M632.34 344.527h8.72v-8.72h-17.44v8.72h8.72" fill="#5d3138" originalFill="#5d3138"/>
    <path d="M623.62 231.14v8.72h8.72v-8.72h-8.72" fill="#471b16" originalFill="#471b16"/>
    <path d="M623.62 213.687h8.72v-8.72h-8.72v8.72" fill="#80d3bf" originalFill="#80d3bf"/>
    <path d="M623.62 204.967h8.72v-8.72h-8.72v8.72" fill="#6ec3ae" originalFill="#6ec3ae"/>
    <path d="M623.62 196.247h8.72v-8.72h-8.72v8.72" fill="#98dcc9" originalFill="#98dcc9"/>
    <path d="M632.34 187.527h34.893v-17.44h-8.72v8.72H614.9v8.72h17.44" fill="#4ba994" originalFill="#4ba994"/>
    <path d="M614.9 684.687h-8.72v8.72h17.44v-8.72h-8.72" fill="#5d2317" originalFill="#5d2317"/>
    <path d="M623.62 623.633V614.9h-8.72v8.733h8.72" fill="#3d1c1e" originalFill="#3d1c1e"/>
    <path d="M623.62 614.9h17.44v-8.72H614.9v8.72h8.72m-8.72-165.707h-26.16v8.72h34.88v-8.72h-8.72" fill="#8c3f1c" originalFill="#8c3f1c"/>
    <path d="M614.9 440.46h-8.72v8.733h17.44v-8.733h-8.72" fill="#5d3138" originalFill="#5d3138"/>
    <path d="M623.62 440.46h17.44v-8.72H614.9v8.72h8.72m-8.72-17.44h8.72v-17.44h-8.72v17.44m0-43.613v17.453h8.72v-17.453h-8.72" fill="#cbad87" originalFill="#cbad87"/>
    <path d="M614.9 379.407h17.44v-8.72h-8.72v-8.72h-8.72v17.44" fill="#dec29a" originalFill="#dec29a"/>
    <path d="M614.9 361.967h8.72v-17.44h-8.72v17.44" fill="#cbad87" originalFill="#cbad87"/>
    <path d="M623.62 335.807h34.893v-8.734H614.9v8.734h8.72" fill="#8c3f1c" originalFill="#8c3f1c"/>
    <path d="M614.9 231.14v8.72h8.72v-8.72h-8.72" fill="#682c20" originalFill="#682c20"/>
    <path d="M614.9 204.967h-8.72v8.72h17.44v-8.72h-8.72" fill="#6ec3ae" originalFill="#6ec3ae"/>
    <path d="M623.62 170.087h-8.72v8.72h8.72v-8.72" fill="#6bc7ad" originalFill="#6bc7ad"/>
    <path d="M606.18 431.74v8.72h8.72v-17.44h-8.72v8.72" fill="#54252a" originalFill="#54252a"/>
    <path d="M606.18 414.3v8.72h8.72v-17.44h-8.72v8.72" fill="#5d3138" originalFill="#5d3138"/>
    <path d="M606.18 405.58h8.72v-8.72h-8.72v8.72" fill="#54252a" originalFill="#54252a"/>
    <path d="M606.18 388.127v8.733h8.72v-8.733h-8.72" fill="#5d3138" originalFill="#5d3138"/>
    <path d="M606.18 379.407v8.72h8.72v-26.16h-8.72v17.44" fill="#54252a" originalFill="#54252a"/>
    <path d="M606.18 361.967h8.72v-17.44h-8.72v17.44" fill="#5d3138" originalFill="#5d3138"/>
    <path d="M606.18 231.14h-8.72v8.72h17.44v-8.72h-8.72" fill="#5d2518" originalFill="#5d2518"/>
    <path d="M614.9 152.633h-8.72v8.734h8.72v-8.734" fill="#54252a" originalFill="#54252a"/>
    <path d="M614.9 143.913h17.44v-8.72h-26.16v8.72h8.72" fill="#6bc7ad" originalFill="#6bc7ad"/>
    <path d="M597.46 684.687v8.72h8.72v-8.72h-8.72" fill="#6d2b17" originalFill="#6d2b17"/>
    <path d="M606.18 614.9h8.72v-8.72h-17.44v8.72h8.72" fill="#a04826" originalFill="#a04826"/>
    <path d="M597.46 440.46h-8.72v8.733h17.44v-8.733h-8.72" fill="#54252a" originalFill="#54252a"/>
    <path d="M597.46 431.74v8.72h8.72v-8.72h-8.72m8.72-26.16v-8.72h-8.72v26.16h8.72v-17.44" fill="#cbad87" originalFill="#cbad87"/>
    <path d="M597.46 396.86h8.72v-8.733h-8.72v8.733" fill="#dec29a" originalFill="#dec29a"/>
    <path d="M606.18 388.127v-17.44h-8.72v17.44h8.72" fill="#cbad87" originalFill="#cbad87"/>
    <path d="M606.18 335.807h8.72v-8.734h-17.44v8.734h8.72" fill="#a25239" originalFill="#a25239"/>
    <path d="M597.46 213.687h8.72v-8.72h17.44v-17.44h-8.72v8.72h-17.44v-8.72h-8.72v17.44h8.72v8.72" fill="#80d3bf" originalFill="#80d3bf"/>
    <path d="M597.46 196.247h17.44v-8.72h-17.44v8.72" fill="#98dcc9" originalFill="#98dcc9"/>
    <path d="M606.18 187.527v-8.72h-8.72v-8.72h-8.72v17.44h17.44" fill="#4ba994" originalFill="#4ba994"/>
    <path d="M606.18 161.367h-8.72v8.72h8.72v-8.72" fill="#6bc7ad" originalFill="#6bc7ad"/>
    <path d="M588.74 684.687v8.72h8.72v-8.72h-8.72" fill="#5d2317" originalFill="#5d2317"/>
    <path d="M588.74 667.233v8.72h8.72v-8.72h-8.72" fill="#3d1c1e" originalFill="#3d1c1e"/>
    <path d="M588.74 396.86v8.72h8.72v-8.72h-8.72" fill="#783019" originalFill="#783019"/>
    <path d="M597.46 388.127v-8.72h-8.72v17.453h8.72v-8.733" fill="#8c3f1c" originalFill="#8c3f1c"/>
    <path d="M588.74 231.14v8.72h8.72v-8.72h-8.72" fill="#471b16" originalFill="#471b16"/>
    <path d="M597.46 204.967h-8.72v8.72h8.72v-8.72" fill="#6ec3ae" originalFill="#6ec3ae"/>
    <path d="M641.06 152.633h8.733v8.734H632.34v-8.734zm-52.32 17.454h8.72v-8.72h8.72v-8.734h8.72v8.734h-8.72v8.72h-8.72v8.72h8.72v8.72h8.72v-17.44h8.72v8.72h34.893v-8.72h8.72v-8.72h-8.72v-8.734h8.72v-8.72h-8.72v-8.72h-8.72v8.72h-8.733v-8.72h-8.72v8.72h-26.16v-8.72h-8.72v8.72h-8.72v8.72h-8.733v8.734h8.733v8.72" fill="#61bea8" originalFill="#61bea8"/>
    <path d="M597.46 135.193h-8.72v8.72h8.72v-8.72" fill="#6bc7ad" originalFill="#6bc7ad"/>
    <path d="M580.007 684.687v8.72h8.733v-8.72h-8.733" fill="#6d2b17" originalFill="#6d2b17"/>
    <path d="M588.74 614.9h8.72v-8.72h-17.453v8.72h8.733" fill="#8c3f1c" originalFill="#8c3f1c"/>
    <path d="M580.007 449.193v8.72h8.733v-8.72h-8.733" fill="#712e18" originalFill="#712e18"/>
    <path d="M580.007 440.46v8.733h8.733v-8.733h-8.733" fill="#5d3138" originalFill="#5d3138"/>
    <path d="M580.007 431.74v8.72h8.733v-8.72h-8.733" fill="#cbad87" originalFill="#cbad87"/>
    <path d="M580.007 423.02h8.733v-8.72h-8.733v8.72" fill="#f0d7bb" originalFill="#f0d7bb"/>
    <path d="M588.74 353.247h8.72v8.72h8.72v-17.44h-26.173v8.72h8.733" fill="#cbad87" originalFill="#cbad87"/>
    <path d="M580.007 248.58h8.733v-8.72h-8.733v8.72" fill="#4a1d15" originalFill="#4a1d15"/>
    <path d="M580.007 231.14v8.72h8.733v-8.72h-8.733" fill="#5d2518" originalFill="#5d2518"/>
    <path d="M588.74 231.14h95.933v-26.173h-8.72v-8.72h-8.72v26.173H588.74v-17.453h-8.733v-8.72h-8.72v34.893h17.453" fill="#712e18" originalFill="#712e18"/>
    <path d="M580.007 196.247v8.72h8.733v-8.72h-8.733" fill="#803621" originalFill="#803621"/>
    <path d="M580.007 196.247h8.733v-26.16h-8.733v8.72h-8.72v8.72h8.72v8.72" fill="#712e18" originalFill="#712e18"/>
    <path d="M588.74 161.367h-8.733v8.72h8.733v-8.72" fill="#803621" originalFill="#803621"/>
    <path d="M588.74 143.913h-8.733v8.72h8.733v-8.72" fill="#6bc7ad" originalFill="#6bc7ad"/>
    <path d="M571.287 684.687v8.72h8.72v-8.72h-8.72" fill="#5d2317" originalFill="#5d2317"/>
    <path d="M580.007 614.9v-8.72h-8.72v8.72h8.72" fill="#a04826" originalFill="#a04826"/>
    <path d="M571.287 449.193h-78.494v8.72h87.214v-8.72h-8.72" fill="#8c3f1c" originalFill="#8c3f1c"/>
    <path d="M571.287 440.46v8.733h8.72v-8.733h-8.72" fill="#54252a" originalFill="#54252a"/>
    <path d="M580.007 379.407v-8.72h-8.72v8.72h8.72m0-17.44v-8.72h-8.72v8.72h8.72" fill="#f0d7bb" originalFill="#f0d7bb"/>
    <path d="M580.007 353.247v-8.72h-8.72v8.72h8.72" fill="#dec29a" originalFill="#dec29a"/>
    <path d="M580.007 231.14h-8.72v8.72h8.72v-8.72" fill="#682c20" originalFill="#682c20"/>
    <path d="M580.007 187.527h-8.72v8.72h8.72v-8.72m0-17.44h-8.72v8.72h8.72v-8.72" fill="#803621" originalFill="#803621"/>
    <path d="M562.567 684.687h-17.44v8.72h26.16v-8.72h-8.72" fill="#6d2b17" originalFill="#6d2b17"/>
    <path d="M562.567 440.46h-17.44v8.733h26.16v-8.733h-8.72" fill="#5d3138" originalFill="#5d3138"/>
    <path d="M562.567 431.74h-17.44v8.72h26.16v-8.72h-8.72" fill="#cbad87" originalFill="#cbad87"/>
    <path d="M562.567 370.687h8.72v-8.72h-8.72v8.72" fill="#f0d7bb" originalFill="#f0d7bb"/>
    <path d="M571.287 361.967v-8.72h-8.72v8.72h8.72" fill="#dec29a" originalFill="#dec29a"/>
    <path d="M571.287 353.247v-8.72h-8.72v8.72h8.72" fill="#cbad87" originalFill="#cbad87"/>
    <path d="M571.287 335.807h26.173v-8.734h-34.893v8.734h8.72" fill="#8c3f1c" originalFill="#8c3f1c"/>
    <path d="M553.847 667.233h-8.72v8.72h17.44v-8.72h-8.72" fill="#3d1c1e" originalFill="#3d1c1e"/>
    <path d="M553.847 396.86h8.72v-17.453h-8.72v17.453m8.72-43.613h-8.72v8.72h8.72v-8.72" fill="#f0d7bb" originalFill="#f0d7bb"/>
    <path d="M562.567 353.247v-8.72h-8.72v8.72h8.72" fill="#dec29a" originalFill="#dec29a"/>
    <path d="M562.567 335.807v-8.734h-8.72v8.734h8.72" fill="#a25239" originalFill="#a25239"/>
    <path d="M553.847 623.633V614.9h-8.72v8.733h8.72" fill="#3d1c1e" originalFill="#3d1c1e"/>
    <path d="M553.847 414.3v-8.72h-8.72v17.44h8.72v-8.72m0-26.173v-8.72h-8.72v17.453h8.72v-8.733" fill="#cbad87" originalFill="#cbad87"/>
    <path d="M588.74 423.02h-8.733v-8.72h8.733zm-34.893-43.613h8.72v17.453h-17.44v8.72h8.72v17.44h-8.72v8.72h26.16v8.72h8.72v-8.72h8.733v8.72h8.72v-8.72h8.72v-8.72h-8.72v-17.44h-8.72v-26.173h8.72v-8.72h8.72v-8.72h-8.72v-8.72h-17.453v8.72h-8.72v8.72h8.72v8.72h-8.72v-8.72h-8.72v-8.72h-8.72v8.72h-8.72v8.72h8.72" fill="#dec29a" originalFill="#dec29a"/>
    <path d="M545.127 370.687h8.72v-26.16h-8.72v26.16" fill="#cbad87" originalFill="#cbad87"/>
    <path d="M536.407 684.687v8.72h8.72v-8.72h-8.72" fill="#5d2317" originalFill="#5d2317"/>
    <path d="M536.407 667.233v8.72h8.72v-8.72h-8.72" fill="#54252a" originalFill="#54252a"/>
    <path d="M545.127 667.233v-8.72h-8.72v8.72h8.72" fill="#3d1c1e" originalFill="#3d1c1e"/>
    <path d="M545.127 431.74h-8.72v8.72h-8.72v8.733h17.44V431.74" fill="#54252a" originalFill="#54252a"/>
    <path d="M536.407 431.74h8.72V414.3h-8.72v17.44" fill="#5d3138" originalFill="#5d3138"/>
    <path d="M545.127 405.58v-8.72h-8.72v17.44h8.72v-8.72" fill="#54252a" originalFill="#54252a"/>
    <path d="M536.407 388.127v8.733h8.72v-8.733h-8.72" fill="#5d3138" originalFill="#5d3138"/>
    <path d="M545.127 388.127v-17.44h-8.72v17.44h8.72" fill="#54252a" originalFill="#54252a"/>
    <path d="M536.407 370.687h8.72v-17.44h-8.72v17.44" fill="#5d3138" originalFill="#5d3138"/>
    <path d="M527.687 684.687H457.9v8.72h78.507v-8.72h-8.72" fill="#6d2b17" originalFill="#6d2b17"/>
    <path d="M527.687 667.233v8.72h8.72v-8.72h-8.72" fill="#3d1c1e" originalFill="#3d1c1e"/>
    <path d="M527.687 667.233h8.72v-8.72h-8.72v8.72" fill="#54252a" originalFill="#54252a"/>
    <path d="M536.407 658.513v-8.72h-8.72v8.72h8.72m0-17.44v-8.72h-8.72v8.72h8.72" fill="#3d1c1e" originalFill="#3d1c1e"/>
    <path d="M527.687 623.633v8.72h8.72v8.72h-8.72v8.72h8.72v8.72h8.72v8.72h17.44v8.72h26.173v-8.72h8.72v8.72h17.44v-8.72h8.72v-8.72h8.72v-8.72h8.72v-26.16h-8.72v8.72h-8.72v-8.72h-8.72V614.9h-61.053v8.733h-8.72V614.9h-8.72v8.733h-8.72" fill="#54252a" originalFill="#54252a"/>
    <path d="M536.407 623.633V614.9h-8.72v8.733h8.72" fill="#3d1c1e" originalFill="#3d1c1e"/>
    <path d="M536.407 614.9h34.88v-8.72h-43.6v8.72h8.72" fill="#8c3f1c" originalFill="#8c3f1c"/>
    <path d="M536.407 431.74V414.3h-8.72v26.16h8.72v-8.72m0-43.613v-8.72h-8.72v26.173h8.72v-17.453" fill="#cbad87" originalFill="#cbad87"/>
    <path d="M536.407 335.807h17.44v-8.734h-26.16v8.734h8.72" fill="#8c3f1c" originalFill="#8c3f1c"/>
    <path d="M527.687 100.313h8.72V91.58h-8.72v8.733" fill="#f57a14" originalFill="#f57a14"/>
    <path d="M536.407 91.58v-8.72h-8.72v8.72h8.72" fill="#f1b32b" originalFill="#f1b32b"/>
    <path d="M518.953 675.953v8.734h8.734v-8.734h-8.734" fill="#a04826" originalFill="#a04826"/>
    <path d="M527.687 658.513h-8.734v17.44h8.734v-17.44" fill="#8c3f1c" originalFill="#8c3f1c"/>
    <path d="M527.687 649.793h-8.734v8.72h8.734v-8.72" fill="#a04826" originalFill="#a04826"/>
    <path d="M527.687 641.073h-8.734v8.72h8.734v-8.72" fill="#8c3f1c" originalFill="#8c3f1c"/>
    <path d="M527.687 632.353v-8.72h-8.734v17.44h8.734v-8.72" fill="#a04826" originalFill="#a04826"/>
    <path d="M527.687 623.633V614.9h-8.734v8.733h8.734" fill="#8c3f1c" originalFill="#8c3f1c"/>
    <path d="M527.687 614.9v-8.72h-8.734v8.72h8.734" fill="#a04826" originalFill="#a04826"/>
    <path d="M518.953 440.46h-8.72v8.733h17.454v-8.733h-8.734" fill="#5d3138" originalFill="#5d3138"/>
    <path d="M518.953 396.86v8.72h8.734v-8.72h-8.734" fill="#783019" originalFill="#783019"/>
    <path d="M527.687 388.127v-8.72h-8.734v17.453h8.734v-8.733" fill="#8c3f1c" originalFill="#8c3f1c"/>
    <path d="M527.687 353.247v17.44h8.72v-26.16h-17.454v8.72h8.734" fill="#cbad87" originalFill="#cbad87"/>
    <path d="M527.687 335.807v-8.734h-8.734v8.734h8.734" fill="#a25239" originalFill="#a25239"/>
    <path d="M518.953 91.58v8.733h8.734V82.86h-8.734v8.72" fill="#f79d0f" originalFill="#f79d0f"/>
    <path d="M527.687 82.86v-8.72h-8.734v8.72h8.734" fill="#f1b32b" originalFill="#f1b32b"/>
    <path d="M510.233 675.953h-17.44v8.734h26.16v-8.734h-8.72" fill="#8c3f1c" originalFill="#8c3f1c"/>
    <path d="M518.953 431.74h-8.72v8.72h8.72v-8.72" fill="#cbad87" originalFill="#cbad87"/>
    <path d="M518.953 100.313V91.58h-26.16v8.733h26.16" fill="#f57a14" originalFill="#f57a14"/>
    <path d="M510.233 82.86v8.72h8.72v-8.72h-8.72m8.72-8.72v-8.72h-8.72v8.72h8.72" fill="#f1b32b" originalFill="#f1b32b"/>
    <path d="M501.513 606.18h8.72v-8.72h-8.72v8.72" fill="#d9cf6e" originalFill="#d9cf6e"/>
    <path d="M501.513 580.02v17.44h8.72v-34.893h-8.72v17.453" fill="#e7e188" originalFill="#e7e188"/>
    <path d="M501.513 440.46v8.733h8.72v-8.733h-8.72" fill="#54252a" originalFill="#54252a"/>
    <path d="M510.233 379.407v-8.72h-8.72v8.72h8.72m-8.72-17.44h8.72v-8.72h-8.72v8.72" fill="#f0d7bb" originalFill="#f0d7bb"/>
    <path d="M510.233 222.42V100.313h-8.72V231.14h8.72v-8.72" fill="#712e18" originalFill="#712e18"/>
    <path d="M492.793 710.847h8.72v-8.72h-8.72v8.72" fill="#54252a" originalFill="#54252a"/>
    <path d="M492.793 693.407v8.72h17.44v-8.72h-17.44" fill="#3d1c1e" originalFill="#3d1c1e"/>
    <path d="M484.073 667.233H466.62v-43.6h43.613v43.6h-17.44zm17.44 8.72h17.44V614.9H457.9v61.053h43.613" fill="#f57a14" originalFill="#f57a14"/>
    <path d="M501.513 667.233h8.72v-43.6h-17.44v8.72h8.72v17.44h-8.72v8.72h-8.72v-8.72h8.72v-17.44h-8.72v8.72h-8.72v8.72h-8.733v17.44h34.893" fill="#f79d0f" originalFill="#f79d0f"/>
    <path d="M492.793 649.793h8.72v-17.44h-8.72v17.44" fill="#6d2b17" originalFill="#6d2b17"/>
    <path d="M492.793 606.18v8.72h26.16v-8.72h-26.16" fill="#8c3f1c" originalFill="#8c3f1c"/>
    <path d="M492.793 562.567v26.173h-8.72v8.72h8.72v8.72h8.72v-61.053h-8.72v17.44" fill="#2d7677" originalFill="#2d7677"/>
    <path d="M492.793 440.46v8.733h8.72v-8.733h-8.72" fill="#5d3138" originalFill="#5d3138"/>
    <path d="M501.513 423.02v-8.72h-8.72v8.72h8.72m-8.72-52.333h8.72v-8.72h-8.72v8.72" fill="#f0d7bb" originalFill="#f0d7bb"/>
    <path d="M492.793 353.247v8.72h8.72v-8.72h-8.72" fill="#dec29a" originalFill="#dec29a"/>
    <path d="M501.513 353.247h8.72v-8.72h-17.44v8.72h8.72" fill="#cbad87" originalFill="#cbad87"/>
    <path d="M501.513 239.86h26.174v-8.72h-43.614v8.72h17.44" fill="#a7a4a3" originalFill="#a7a4a3"/>
    <path d="M492.793 82.86v8.72h8.72v-8.72h-8.72" fill="#f1b32b" originalFill="#f1b32b"/>
    <path d="M501.513 82.86v8.72h8.72v-8.72h8.72v-8.72h-8.72v-8.72h-8.72v8.72h-8.72v8.72h8.72" fill="#f79d0f" originalFill="#f79d0f"/>
    <path d="M501.513 65.42h-8.72v8.72h8.72v-8.72" fill="#f1b32b" originalFill="#f1b32b"/>
    <path d="M484.073 719.567h8.72v-8.72h-8.72v8.72" fill="#54252a" originalFill="#54252a"/>
    <path d="M484.073 702.126v8.72h8.72v-8.72h-8.72" fill="#6c333f" originalFill="#6c333f"/>
    <path d="M484.073 675.953v8.734h8.72v-8.734h-8.72" fill="#a04826" originalFill="#a04826"/>
    <path d="M484.073 658.513h8.72v-8.72h-8.72v8.72m8.72-26.16v-8.72h-8.72v8.72h8.72" fill="#f3b90f" originalFill="#f3b90f"/>
    <path d="M492.793 614.9v-8.72h-8.72v8.72h8.72" fill="#a04826" originalFill="#a04826"/>
    <path d="M492.793 597.46h-8.72v8.72h8.72v-8.72m-8.72-26.16v17.44h8.72v-43.613h-8.72V571.3" fill="#307e83" originalFill="#307e83"/>
    <path d="M484.073 449.193h-8.72v8.72h17.44v-8.72h-8.72" fill="#712e18" originalFill="#712e18"/>
    <path d="M484.073 440.46v8.733h8.72v-8.733h-8.72" fill="#54252a" originalFill="#54252a"/>
    <path d="M492.793 440.46h8.72v-8.72h-17.44V414.3h-8.72v26.16h17.44" fill="#cbad87" originalFill="#cbad87"/>
    <path d="M501.513 414.3v8.72h-8.72v-8.72zm-17.44 8.72v8.72h17.44v8.72h8.72v-8.72h8.72v8.72h8.734V414.3h8.72v-8.72h-17.454v-26.173h17.454v-8.72h-8.72v-17.44h-8.734v-8.72h-8.72v17.44h-8.72v8.72h8.72v8.72h-8.72v-8.72h-8.72v8.72h-8.72v-8.72h-8.72v17.44h17.44v8.733h-8.72v8.72h-8.72v8.72h8.72v8.72" fill="#dec29a" originalFill="#dec29a"/>
    <path d="M492.793 396.86v-8.733h-8.72v8.733h8.72m-8.72-17.453h8.72v-8.72h-8.72v8.72" fill="#f0d7bb" originalFill="#f0d7bb"/>
    <path d="M484.073 361.967v8.72h8.72v-8.72h-8.72" fill="#dec29a" originalFill="#dec29a"/>
    <path d="M492.793 353.247h-8.72v8.72h8.72v-8.72" fill="#f0d7bb" originalFill="#f0d7bb"/>
    <path d="M492.793 353.247v-8.72h-8.72v8.72h8.72" fill="#dec29a" originalFill="#dec29a"/>
    <path d="M492.793 335.807h26.16v-8.734h-34.88v8.734h8.72" fill="#8c3f1c" originalFill="#8c3f1c"/>
    <path d="M492.793 248.58h43.614v-8.72h-61.054v8.72h17.44" fill="#8a8b8a" originalFill="#8a8b8a"/>
    <path d="M492.793 82.86h-17.44v8.72h8.72v8.733h8.72V82.86" fill="#f79d0f" originalFill="#f79d0f"/>
    <path d="M492.793 74.14h-8.72v8.72h8.72v-8.72" fill="#f1b32b" originalFill="#f1b32b"/>
    <path d="M475.353 728.287h8.72v-8.72h-8.72v8.72" fill="#54252a" originalFill="#54252a"/>
    <path d="M475.353 710.847v8.72h8.72v-8.72h-8.72" fill="#632c35" originalFill="#632c35"/>
    <path d="M475.353 641.073h8.72v-8.72h-8.72v8.72" fill="#f3b90f" originalFill="#f3b90f"/>
    <path d="M484.073 632.353v-8.72h-8.72v8.72h8.72" fill="#f79d0f" originalFill="#f79d0f"/>
    <path d="M484.073 606.18h-8.72v8.72h8.72v-8.72" fill="#8c3f1c" originalFill="#8c3f1c"/>
    <path d="M475.353 571.3v34.88h8.72v-52.333h-8.72V571.3" fill="#e62c39" originalFill="#e62c39"/>
    <path d="M484.073 440.46h-8.72v8.733h8.72v-8.733" fill="#5d3138" originalFill="#5d3138"/>
    <path d="M484.073 396.86v-8.733h-8.72v17.453h8.72v-8.72m0-34.893v-17.44h-8.72v26.16h8.72v-8.72" fill="#cbad87" originalFill="#cbad87"/>
    <path d="M484.073 344.527h52.334v8.72h8.72v-8.72h78.493v-8.72h-157v8.72h17.453" fill="#54252a" originalFill="#54252a"/>
    <path d="M484.073 335.807v-8.734h-8.72v8.734h8.72" fill="#a25239" originalFill="#a25239"/>
    <path d="M475.353 91.58v8.733h8.72V91.58h-8.72" fill="#f57a14" originalFill="#f57a14"/>
    <path d="M475.353 684.687h8.72v-8.734H457.9v8.734h17.453" fill="#8c3f1c" originalFill="#8c3f1c"/>
    <path d="M475.353 641.073h-8.733v8.72h8.733v-8.72" fill="#f3b90f" originalFill="#f3b90f"/>
    <path d="M475.353 632.353h-8.733v8.72h8.733v-8.72" fill="#f79d0f" originalFill="#f79d0f"/>
    <path d="M475.353 623.633h-8.733v8.72h8.733v-8.72" fill="#f3b90f" originalFill="#f3b90f"/>
    <path d="M475.353 614.9v-8.72h-8.733v8.72h8.733" fill="#a04826" originalFill="#a04826"/>
    <path d="M475.353 597.46v-43.613h-8.733v52.333h8.733v-8.72" fill="#ef333d" originalFill="#ef333d"/>
    <path d="M475.353 449.193h-8.733v8.72h8.733v-8.72" fill="#8c3f1c" originalFill="#8c3f1c"/>
    <path d="M475.353 440.46h-8.733v8.733h8.733v-8.733" fill="#54252a" originalFill="#54252a"/>
    <path d="M475.353 431.74h-8.733v8.72h8.733v-8.72" fill="#5d3138" originalFill="#5d3138"/>
    <path d="M475.353 423.02h-8.733v8.72h8.733v-8.72" fill="#54252a" originalFill="#54252a"/>
    <path d="M475.353 414.3h-8.733v8.72h8.733v-8.72" fill="#5d3138" originalFill="#5d3138"/>
    <path d="M475.353 405.58h-8.733v8.72h8.733v-8.72" fill="#54252a" originalFill="#54252a"/>
    <path d="M475.353 396.86h-8.733v8.72h8.733v-8.72" fill="#5d3138" originalFill="#5d3138"/>
    <path d="M475.353 388.127h-8.733v8.733h8.733v-8.733" fill="#54252a" originalFill="#54252a"/>
    <path d="M475.353 379.407v-8.72h-8.733v17.44h8.733v-8.72" fill="#5d3138" originalFill="#5d3138"/>
    <path d="M475.353 361.967v-8.72h-8.733v17.44h8.733v-8.72" fill="#54252a" originalFill="#54252a"/>
    <path d="M475.353 344.527h-8.733v8.72h8.733v-8.72" fill="#5d3138" originalFill="#5d3138"/>
    <path d="M475.353 335.807v-8.734h-8.733v8.734h8.733M466.62 614.9v-8.72h-8.72v8.72h8.72" fill="#8c3f1c" originalFill="#8c3f1c"/>
    <path d="M466.62 457.913v-8.72h-8.72v8.72h8.72" fill="#712e18" originalFill="#712e18"/>
    <path d="M466.62 440.46v-8.72h-8.72v17.453h8.72v-8.733" fill="#8c3f1c" originalFill="#8c3f1c"/>
    <path d="M466.62 423.02h-8.72v8.72h8.72v-8.72" fill="#a25239" originalFill="#a25239"/>
    <path d="M466.62 414.3v-43.613h-8.72v52.333h8.72v-8.72" fill="#8c3f1c" originalFill="#8c3f1c"/>
    <path d="M466.62 361.967h-8.72v8.72h8.72v-8.72" fill="#712e18" originalFill="#712e18"/>
    <path d="M466.62 353.247h-8.72v8.72h8.72v-8.72" fill="#a25239" originalFill="#a25239"/>
    <path d="M466.62 344.527v-8.72h-8.72v17.44h8.72v-8.72" fill="#8c3f1c" originalFill="#8c3f1c"/>
    <path d="M466.62 327.073h-8.72v8.734h8.72v-8.734" fill="#712e18" originalFill="#712e18"/>
    <path d="M449.18 675.953v8.734h8.72v-8.734h-8.72" fill="#a04826" originalFill="#a04826"/>
    <path d="M457.9 667.233h-8.72v8.72h8.72v-8.72" fill="#8c3f1c" originalFill="#8c3f1c"/>
    <path d="M457.9 658.513h-8.72v8.72h8.72v-8.72" fill="#a04826" originalFill="#a04826"/>
    <path d="M457.9 649.793h-8.72v8.72h8.72v-8.72" fill="#8c3f1c" originalFill="#8c3f1c"/>
    <path d="M457.9 641.073v-8.72h-8.72v17.44h8.72v-8.72" fill="#a04826" originalFill="#a04826"/>
    <path d="M457.9 623.633V614.9h-8.72v17.453h8.72v-8.72" fill="#8c3f1c" originalFill="#8c3f1c"/>
    <path d="M457.9 606.18h-8.72v8.72h8.72v-8.72" fill="#a04826" originalFill="#a04826"/>
    <path d="M457.9 449.193h-8.72v8.72h8.72v-8.72" fill="#fff" originalFill="#fff"/>
    <path d="M405.567 248.58h8.733v-8.72h-8.733v8.72" fill="#97482b" originalFill="#97482b"/>
    <path d="M405.567 231.14v8.72h8.733v-17.44h-8.733v8.72" fill="#8c3f1c" originalFill="#8c3f1c"/>
    <path d="M405.567 213.687v8.733h8.733v-17.453h-8.733v8.72" fill="#97482b" originalFill="#97482b"/>
    <path d="M405.567 204.967h8.733v-8.72h-8.733v8.72" fill="#8c3f1c" originalFill="#8c3f1c"/>
    <path d="M405.567 196.247h8.733v-8.72h-8.733v8.72" fill="#70301d" originalFill="#70301d"/>
    <path d="M396.847 649.793v43.614h8.72v-52.334h-8.72v8.72m0-26.16h8.72V614.9h-8.72v8.733" fill="#f68b1d" originalFill="#f68b1d"/>
    <path d="M396.847 239.86h-8.72v8.72h17.44v-8.72h-8.72" fill="#8c3f1c" originalFill="#8c3f1c"/>
    <path d="M396.847 239.86h8.72v-8.72h-8.72v8.72" fill="#4ba490" originalFill="#4ba490"/>
    <path d="M396.847 178.807v8.72H414.3v-8.72h-17.453" fill="#8c3f1c" originalFill="#8c3f1c"/>
    <path d="M388.127 702.126h-17.44v8.72h34.88v-8.72h-17.44" fill="#ee6f17" originalFill="#ee6f17"/>
    <path d="M396.847 684.687v-43.614h-8.72v-8.72h-8.72v8.72h-8.72v17.44h8.72v8.72h-8.72v26.174H109.02v-34.894h-8.72v-8.72h8.72v-8.72h-8.72v-8.72h-8.72v8.72h-8.72v8.72h-8.72v8.72h8.72v43.614h183.16v8.72h8.72v-8.72h43.613v8.72h8.72v-8.72h34.894v8.72h8.72v-8.72h34.88v-8.72h-8.72v-8.72" fill="#f57a14" originalFill="#f57a14"/>
    <path d="M396.847 641.073v-8.72h-8.72v8.72h8.72" fill="#f68b1d" originalFill="#f68b1d"/>
    <path d="M396.847 614.9h-8.72v17.453h8.72v8.72h8.72v-17.44h-8.72V614.9" fill="#f57a14" originalFill="#f57a14"/>
    <path d="M396.847 213.687v-17.44h-8.72v-8.72h-8.72v8.72h-8.72v8.72h-8.72v8.72h8.72v8.733h-8.72v-8.733h-8.72v-8.72h-8.734v8.72h-8.72v8.733h8.72v8.72h34.894v8.72h17.44v-8.72h8.72v-8.72h-8.72v-8.733" fill="#61bea8" originalFill="#61bea8"/>
    <path d="M388.127 196.247h8.72v26.173h8.72v-34.893h-17.44v8.72" fill="#4ba490" originalFill="#4ba490"/>
    <path d="M396.847 187.527v-8.72h-8.72v8.72h8.72" fill="#97482b" originalFill="#97482b"/>
    <path d="M379.407 710.847H82.86v8.72h313.987v-8.72h-17.44" fill="#e0621b" originalFill="#e0621b"/>
    <path d="M388.127 632.353v-8.72h-8.72v8.72h8.72" fill="#f68b1d" originalFill="#f68b1d"/>
    <path d="M388.127 501.513v-8.72h-8.72v8.72h8.72" fill="#8c3f1c" originalFill="#8c3f1c"/>
    <path d="M379.407 239.86v8.72h8.72v-8.72h-8.72" fill="#97482b" originalFill="#97482b"/>
    <path d="M370.687 728.287h8.72v-8.72h-8.72v8.72" fill="#8c3f1c" originalFill="#8c3f1c"/>
    <path d="M379.407 667.233v-8.72h-8.72v8.72h8.72m-8.72-26.16h8.72v-8.72h-8.72v8.72" fill="#f68b1d" originalFill="#f68b1d"/>
    <path d="M379.407 606.18v-8.72h-8.72v8.72h8.72" fill="#fff" originalFill="#fff"/>
    <path d="M370.687 484.073h8.72v-8.72h-8.72v8.72" fill="#287133" originalFill="#287133"/>
    <path d="M370.687 475.353h8.72v-8.72h-8.72v8.72" fill="#318b3a" originalFill="#318b3a"/>
    <path d="M370.687 466.633h8.72v-8.72h-8.72v8.72" fill="#287133" originalFill="#287133"/>
    <path d="M370.687 457.913h8.72v-8.72h-8.72v8.72" fill="#e67f16" originalFill="#e67f16"/>
    <path d="M370.687 449.193h8.72v-8.733h-8.72v8.733" fill="#318b3a" originalFill="#318b3a"/>
    <path d="M370.687 423.02v8.72h-8.72v17.453h8.72v-8.733h8.72V414.3h-8.72v8.72" fill="#287133" originalFill="#287133"/>
    <path d="M370.687 414.3h8.72v-8.72h-8.72v8.72" fill="#318b3a" originalFill="#318b3a"/>
    <path d="M370.687 405.58h8.72v-8.72h-8.72v8.72" fill="#287133" originalFill="#287133"/>
    <path d="M309.633 379.407v-8.72h8.72v8.72zm61.054-43.6h-17.44v-8.734h-17.454v8.734h-8.72v-8.734h-17.44v8.734h-8.72v-8.734h-8.72v8.734H274.74v8.72h17.453v17.44h-8.733v8.72h8.733v8.72h8.72v8.72h8.72v8.733h8.72v-8.733h8.72v8.733h-8.72v17.44h26.16v-8.72h-8.72v-8.72h8.72v-8.733h-8.72v-8.72h8.72v8.72h8.734v8.733h8.72v8.72h8.72v-8.72h8.72v-69.787h-8.72v8.734" fill="#318b3a" originalFill="#318b3a"/>
    <path d="M370.687 327.073h8.72v-8.72h-8.72v8.72" fill="#287133" originalFill="#287133"/>
    <path d="M379.407 318.353h8.72v-8.72h-17.44v8.72h8.72" fill="#e67f16" originalFill="#e67f16"/>
    <path d="M370.687 239.86h-26.174v8.72h34.894v-8.72h-8.72" fill="#8c3f1c" originalFill="#8c3f1c"/>
    <path d="M370.687 231.14h-26.174v-8.72h-8.72v17.44h43.614v-8.72h-8.72" fill="#4ba490" originalFill="#4ba490"/>
    <path d="M379.407 187.527h8.72v-8.72h-17.44v8.72h8.72" fill="#8c3f1c" originalFill="#8c3f1c"/>
    <path d="M361.967 675.953h8.72v-8.72h-8.72v8.72" fill="#f9b11c" originalFill="#f9b11c"/>
    <path d="M361.967 658.513h-69.774V614.9h-8.733v43.613h-43.6v8.72h130.827v-17.44h-8.72v8.72" fill="#d6601d" originalFill="#d6601d"/>
    <path d="M327.073 632.353h17.44v8.72h-17.44zm34.894-26.173h-43.614v8.72h-8.72v8.733h-8.72V614.9h8.72v-8.72h-17.44v52.333h69.774v-8.72h8.72v-17.44h8.72V606.18h-17.44" fill="#e96d18" originalFill="#e96d18"/>
    <path d="M361.967 501.513v8.734h8.72v-8.734h-8.72" fill="#54252a" originalFill="#54252a"/>
    <path d="M370.687 492.793h-8.72v8.72h8.72v-8.72" fill="#287133" originalFill="#287133"/>
    <path d="M370.687 475.353h-8.72v8.72h-8.72v-8.72h-8.734v34.894h17.454v-17.454h8.72v17.454h8.72v-26.174h-8.72v-8.72" fill="#318b3a" originalFill="#318b3a"/>
    <path d="M361.967 475.353h8.72v-8.72h-8.72v8.72" fill="#287133" originalFill="#287133"/>
    <path d="M361.967 466.633h8.72v-8.72h-8.72v8.72" fill="#318b3a" originalFill="#318b3a"/>
    <path d="M370.687 457.913v-8.72h-8.72v8.72h8.72" fill="#f79d0f" originalFill="#f79d0f"/>
    <path d="M361.967 423.02v8.72h8.72V414.3h-8.72v8.72" fill="#318b3a" originalFill="#318b3a"/>
    <path d="M370.687 414.3v-8.72h-8.72v8.72h8.72" fill="#287133" originalFill="#287133"/>
    <path d="M370.687 318.353v-8.72h-8.72v8.72h8.72" fill="#f79d0f" originalFill="#f79d0f"/>
    <path d="M370.687 222.42v-8.733h-8.72v8.733h8.72m-8.72-17.453h8.72v-8.72h-8.72v8.72" fill="#7bd2b8" originalFill="#7bd2b8"/>
    <path d="M353.247 684.687H109.02v8.72h261.667v-8.72h-17.44" fill="#e96d18" originalFill="#e96d18"/>
    <path d="M361.967 667.233h-8.72v8.72h-8.734v-8.72h-43.6v8.72H274.74v-8.72h-8.72v8.72h-8.72v-8.72h-52.333v8.72h-26.16v-8.72h-43.614v8.72h-8.72v-8.72h-8.72v8.72h-8.733v8.734h261.667v-8.734h-8.72v-8.72" fill="#f79d0f" originalFill="#f79d0f"/>
    <path d="M353.247 510.247h-34.894v-8.734h-17.44v8.734h-69.786v-8.734h-8.72v8.734h-69.774v-8.734h-8.72v8.734H109.02v8.72h261.667v-8.72h-17.44" fill="#3d1c1e" originalFill="#3d1c1e"/>
    <path d="M353.247 484.073h8.72v-8.72h-8.72v8.72" fill="#287133" originalFill="#287133"/>
    <path d="M353.247 466.633v8.72h8.72v-8.72h-8.72" fill="#318b3a" originalFill="#318b3a"/>
    <path d="M353.247 457.913v8.72h8.72v-17.44h-8.72v8.72" fill="#9fdaed" originalFill="#9fdaed"/>
    <path d="M361.967 414.3h-8.72v8.72h-8.734v8.72h17.454V414.3" fill="#287133" originalFill="#287133"/>
    <path d="M353.247 414.3h8.72v-8.72h-8.72v8.72" fill="#318b3a" originalFill="#318b3a"/>
    <path d="M361.967 405.58v-8.72h-8.72v8.72h8.72" fill="#287133" originalFill="#287133"/>
    <path d="M353.247 327.073v8.734h17.44v-8.734h-17.44" fill="#3aa83f" originalFill="#3aa83f"/>
    <path d="M361.967 318.353v-8.72h-8.72v8.72h8.72" fill="#e67f16" originalFill="#e67f16"/>
    <path d="M353.247 213.687h8.72v-8.72h-8.72v8.72" fill="#7bd2b8" originalFill="#7bd2b8"/>
    <path d="M353.247 196.247v8.72h8.72v-8.72h-8.72" fill="#61bea8" originalFill="#61bea8"/>
    <path d="M361.967 196.247h17.44v-8.72h-26.16v8.72h8.72" fill="#4ba490" originalFill="#4ba490"/>
    <path d="M361.967 187.527h8.72v-8.72h-17.44v8.72h8.72" fill="#97482b" originalFill="#97482b"/>
    <path d="M353.247 675.953v-8.72h-8.734v8.72h8.734" fill="#f9b11c" originalFill="#f9b11c"/>
    <path d="M344.513 466.633v8.72h8.734v-8.72h-8.734" fill="#9fdaed" originalFill="#9fdaed"/>
    <path d="M353.247 466.633v-17.44h-8.734v-8.733h-8.72v-8.72h-17.44v8.72h8.72v8.733h-8.72v8.72h-8.72v8.72h-8.72v-8.72h-8.72v8.72h-8.733v8.72h52.333v8.72h8.72v-17.44h8.734" fill="#ade3f9" originalFill="#ade3f9"/>
    <path d="M353.247 449.193v-8.733h-8.734v8.733h8.734" fill="#9fdaed" originalFill="#9fdaed"/>
    <path d="M344.513 431.74v8.72h8.734v8.733h8.72V431.74h-17.454m8.734-8.72v-8.72h-8.734v8.72h8.734" fill="#318b3a" originalFill="#318b3a"/>
    <path d="M353.247 405.58h-8.734v8.72h8.734v-8.72" fill="#287133" originalFill="#287133"/>
    <path d="M353.247 396.86h-8.734v8.72h8.734v-8.72" fill="#318b3a" originalFill="#318b3a"/>
    <path d="M353.247 388.127h-8.734v8.733h8.734v-8.733m0-61.054v-8.72h-8.734v8.72h8.734" fill="#287133" originalFill="#287133"/>
    <path d="M344.513 196.247v8.72h8.734v-8.72h-8.734" fill="#7bd2b8" originalFill="#7bd2b8"/>
    <path d="M353.247 196.247v-8.72h-8.734v8.72h8.734" fill="#61bea8" originalFill="#61bea8"/>
    <path d="M344.513 710.847h17.454v-8.72h-34.894v8.72h17.44" fill="#ee6f17" originalFill="#ee6f17"/>
    <path d="M344.513 641.073v-8.72h-8.72v8.72h8.72" fill="#d6601d" originalFill="#d6601d"/>
    <path d="M335.793 501.513h8.72v-8.72h-8.72v8.72" fill="#ad4c27" originalFill="#ad4c27"/>
    <path d="M335.793 440.46h8.72v-8.72h-8.72v8.72" fill="#9fdaed" originalFill="#9fdaed"/>
    <path d="M344.513 431.74v-8.72h-8.72v8.72h8.72" fill="#318b3a" originalFill="#318b3a"/>
    <path d="M344.513 423.02v-8.72h-8.72v8.72h8.72" fill="#287133" originalFill="#287133"/>
    <path d="M335.793 396.86v8.72h8.72v-8.72h-8.72" fill="#3aa83f" originalFill="#3aa83f"/>
    <path d="M335.793 379.407v8.72h8.72v-8.72h-8.72" fill="#287133" originalFill="#287133"/>
    <path d="M344.513 318.353h8.734v-8.72h-17.454v8.72h8.72" fill="#f79d0f" originalFill="#f79d0f"/>
    <path d="M335.793 239.86h-8.72v8.72h17.44v-8.72h-8.72" fill="#97482b" originalFill="#97482b"/>
    <path d="M335.793 204.967v8.72h8.72v-26.16h-8.72v17.44" fill="#4ba490" originalFill="#4ba490"/>
    <path d="M344.513 187.527h8.734v-8.72h-17.454v8.72h8.72" fill="#8c3f1c" originalFill="#8c3f1c"/>
    <path d="M335.793 632.353h-8.72v8.72h8.72v-8.72" fill="#cc521f" originalFill="#cc521f"/>
    <path d="M327.073 501.513h-8.72v8.734h26.16v-8.734h-17.44" fill="#54252a" originalFill="#54252a"/>
    <path d="M335.793 501.513v-8.72h-17.44v8.72h17.44" fill="#8c3f1c" originalFill="#8c3f1c"/>
    <path d="M327.073 484.073v8.72h17.44v-8.72h-17.44" fill="#762f19" originalFill="#762f19"/>
    <path d="M335.793 431.74v-8.72h-8.72v8.72h8.72" fill="#9fdaed" originalFill="#9fdaed"/>
    <path d="M335.793 423.02v-8.72h-8.72v8.72h8.72m-8.72-87.213h8.72v-8.734h-8.72v8.734" fill="#3aa83f" originalFill="#3aa83f"/>
    <path d="M335.793 318.353v-8.72h-8.72v8.72h8.72" fill="#e67f16" originalFill="#e67f16"/>
    <path d="M327.073 231.14v8.72h8.72v-8.72h-8.72" fill="#8c3f1c" originalFill="#8c3f1c"/>
    <path d="M327.073 231.14h8.72v-8.72h-8.72v8.72" fill="#97482b" originalFill="#97482b"/>
    <path d="M327.073 204.967v8.72H274.74v8.733h61.053v-34.893h-8.72v17.44" fill="#8c3f1c" originalFill="#8c3f1c"/>
    <path d="M327.073 423.02h-8.72v8.72h8.72v-8.72" fill="#c9edfb" originalFill="#c9edfb"/>
    <path d="M327.073 423.02v-8.72h-8.72v8.72h8.72" fill="#9fdaed" originalFill="#9fdaed"/>
    <path d="M327.073 388.127h-8.72v8.733h8.72v-8.733" fill="#3aa83f" originalFill="#3aa83f"/>
    <path d="M327.073 327.073v-8.72h-8.72v8.72h8.72" fill="#287133" originalFill="#287133"/>
    <path d="M318.353 239.86h-8.72v8.72h17.44v-8.72h-8.72" fill="#70301d" originalFill="#70301d"/>
    <path d="M318.353 231.14v8.72h8.72v-8.72h-8.72" fill="#3d1c1e" originalFill="#3d1c1e"/>
    <path d="M318.353 222.42v8.72h8.72v-8.72h-8.72" fill="#54252a" originalFill="#54252a"/>
    <path d="M327.073 204.967h-8.72v8.72h8.72v-8.72" fill="#3d1c1e" originalFill="#3d1c1e"/>
    <path d="M327.073 187.527h8.72v-8.72h-17.44v8.72h8.72" fill="#97482b" originalFill="#97482b"/>
    <path d="M309.633 492.793v8.72h8.72v-8.72h-8.72" fill="#ad4c27" originalFill="#ad4c27"/>
    <path d="M309.633 484.073v8.72h17.44v-8.72h-17.44" fill="#662619" originalFill="#662619"/>
    <path d="M309.633 414.3h8.72v-8.72h-8.72v8.72" fill="#9fdaed" originalFill="#9fdaed"/>
    <path d="M318.353 405.58v-8.72h-8.72v8.72h8.72m-8.72-34.893v8.72h8.72v-8.72h-8.72" fill="#3aa83f" originalFill="#3aa83f"/>
    <path d="M309.633 231.14v-8.72h-95.946v8.72h-8.72v-8.72h-17.44v8.72h-8.72v8.72h139.546v-8.72h-8.72" fill="#54252a" originalFill="#54252a"/>
    <path d="M309.633 222.42v8.72h8.72v-8.72h-8.72" fill="#3d1c1e" originalFill="#3d1c1e"/>
    <path d="M300.913 623.633h8.72V614.9h-8.72v8.733m8.72-17.453v8.72h8.72v-8.72h52.334v-8.72h-69.774v8.72h8.72" fill="#f68b1d" originalFill="#f68b1d"/>
    <path d="M300.913 492.793h-8.72v8.72h17.44v-8.72h-8.72" fill="#8c3f1c" originalFill="#8c3f1c"/>
    <path d="M300.913 484.073h-8.72v8.72h17.44v-8.72h-8.72" fill="#762f19" originalFill="#762f19"/>
    <path d="M309.633 405.58h-8.72v8.72H283.46v8.72h-8.72v8.72h-8.72v43.613h8.72v-8.72h8.72V440.46h8.733v-8.72h8.72v-8.72h8.72v8.72h8.72V414.3h-8.72v-8.72" fill="#ade3f9" originalFill="#ade3f9"/>
    <path d="M300.913 405.58h8.72v-8.72h-8.72v8.72" fill="#9fdaed" originalFill="#9fdaed"/>
    <path d="M309.633 396.86v-8.733h-8.72v8.733h8.72m-8.72-61.053h8.72v-8.734h-8.72v8.734" fill="#3aa83f" originalFill="#3aa83f"/>
    <path d="M309.633 318.353h17.44v-8.72h-26.16v8.72h8.72" fill="#f79d0f" originalFill="#f79d0f"/>
    <path d="M300.913 239.86v8.72h8.72v-8.72h-8.72" fill="#97482b" originalFill="#97482b"/>
    <path d="M309.633 187.527h8.72v-8.72h-17.44v8.72h8.72" fill="#8c3f1c" originalFill="#8c3f1c"/>
    <path d="M300.913 152.633v8.734h8.72v-17.454h-8.72v8.72" fill="#484244" originalFill="#484244"/>
    <path d="M300.913 143.913h8.72v-8.72h-8.72v8.72" fill="#606163" originalFill="#606163"/>
    <path d="M300.913 135.193h8.72v-8.72h-8.72v8.72" fill="#484244" originalFill="#484244"/>
    <path d="M300.913 126.473h8.72v-8.72h-8.72v8.72" fill="#606163" originalFill="#606163"/>
    <path d="M300.913 109.033v8.72h8.72v-17.44h-8.72v8.72" fill="#484244" originalFill="#484244"/>
    <path d="M300.913 675.953v-8.72h-8.72v8.72h8.72" fill="#f9b11c" originalFill="#f9b11c"/>
    <path d="M292.193 396.86h8.72v-8.733h-8.72v8.733" fill="#9fdaed" originalFill="#9fdaed"/>
    <path d="M300.913 388.127v-8.72h-8.72v8.72h8.72" fill="#3aa83f" originalFill="#3aa83f"/>
    <path d="M300.913 327.073v-8.72h-8.72v8.72h8.72" fill="#287133" originalFill="#287133"/>
    <path d="M300.913 318.353v-8.72h-8.72v8.72h8.72" fill="#e67f16" originalFill="#e67f16"/>
    <path d="M292.193 239.86h-8.733v8.72h17.453v-8.72h-8.72" fill="#8c3f1c" originalFill="#8c3f1c"/>
    <path d="M292.193 152.633h-8.733v8.734h17.453v-8.734h-8.72" fill="#606163" originalFill="#606163"/>
    <path d="M292.193 152.633h8.72v-8.72h-8.72v8.72" fill="#b9b7b6" originalFill="#b9b7b6"/>
    <path d="M292.193 143.913h8.72v-8.72h-8.72v8.72" fill="#c9c8c6" originalFill="#c9c8c6"/>
    <path d="M292.193 135.193h8.72v-8.72h-8.72v8.72" fill="#b9b7b6" originalFill="#b9b7b6"/>
    <path d="M300.913 91.58v8.733h8.72V82.86h-17.44v8.72h8.72" fill="#606163" originalFill="#606163"/>
    <path d="M292.193 710.847h26.16v-8.72H274.74v8.72h17.453" fill="#ee6f17" originalFill="#ee6f17"/>
    <path d="M292.193 675.953v-8.72h-8.733v8.72h8.733" fill="#cc521f" originalFill="#cc521f"/>
    <path d="M283.46 501.513h-52.333v8.734h69.786v-8.734H283.46" fill="#54252a" originalFill="#54252a"/>
    <path d="M283.46 484.073v8.72h8.733v-8.72h-8.733" fill="#662619" originalFill="#662619"/>
    <path d="M292.193 457.913h8.72v8.72h8.72v-8.72h8.72v-8.72h8.72v-8.733h-8.72v-8.72h-8.72v-8.72h-8.72v8.72h-8.72v8.72h-8.733v26.173h8.733v-8.72m-8.733-52.333h-17.44v26.16h8.72v-8.72h8.72v-8.72h17.453v-17.44H283.46v8.72" fill="#c9edfb" originalFill="#c9edfb"/>
    <path d="M283.46 388.127h8.733v-8.72h-8.733v8.72" fill="#9fdaed" originalFill="#9fdaed"/>
    <path d="M292.193 379.407v-8.72h-8.733v8.72h8.733m-8.733-17.44h8.733v-17.44h-8.733v17.44" fill="#3aa83f" originalFill="#3aa83f"/>
    <path d="M292.193 187.527h8.72v-8.72H283.46v8.72h8.733" fill="#97482b" originalFill="#97482b"/>
    <path d="M283.46 135.193v8.72h8.733v-8.72h-8.733" fill="#b9b7b6" originalFill="#b9b7b6"/>
    <path d="M283.46 117.753h8.733v-8.72h-8.733v8.72m8.733-17.44v8.72h8.72V91.58H283.46v8.733h8.733" fill="#dddad9" originalFill="#dddad9"/>
    <path d="M283.46 675.953v-8.72h-8.72v8.72h8.72" fill="#f9b11c" originalFill="#f9b11c"/>
    <path d="M283.46 606.18v8.72h8.733v-8.72h8.72v-8.72H274.74v8.72h8.72" fill="#fff" originalFill="#fff"/>
    <path d="M274.74 492.793v8.72h17.453v-8.72H274.74" fill="#ad4c27" originalFill="#ad4c27"/>
    <path d="M283.46 466.633h-8.72v8.72h8.72v-8.72" fill="#c9edfb" originalFill="#c9edfb"/>
    <path d="M274.74 353.247v26.16h8.72v-26.16h-8.72" fill="#9fdaed" originalFill="#9fdaed"/>
    <path d="M283.46 353.247v-8.72h-8.72v8.72h8.72" fill="#662619" originalFill="#662619"/>
    <path d="M274.74 327.073v8.734h17.453v-8.734H274.74" fill="#3aa83f" originalFill="#3aa83f"/>
    <path d="M274.74 239.86v8.72h8.72v-8.72h-8.72" fill="#97482b" originalFill="#97482b"/>
    <path d="M274.74 196.247h-8.72v8.72h-8.72v-8.72h-8.72v17.44h69.773v-8.72h8.72v-17.44H283.46v8.72h-8.72" fill="#54252a" originalFill="#54252a"/>
    <path d="M274.74 152.633H257.3v8.734h26.16v-8.734h-8.72" fill="#484244" originalFill="#484244"/>
    <path d="M274.74 126.473v8.72h8.72v-8.72h-8.72" fill="#b9b7b6" originalFill="#b9b7b6"/>
    <path d="M283.46 91.58h8.733v-8.72H274.74v8.72h8.72" fill="#484244" originalFill="#484244"/>
    <path d="M266.02 492.793h-17.44v8.72h26.16v-8.72h-8.72" fill="#8c3f1c" originalFill="#8c3f1c"/>
    <path d="M274.74 492.793h8.72v-8.72h-17.44v8.72h8.72" fill="#762f19" originalFill="#762f19"/>
    <path d="M266.02 370.687v26.173h-8.72v8.72h26.16v-8.72h8.733v-8.733h-8.733v-8.72h-8.72v-26.16h-8.72v17.44" fill="#ade3f9" originalFill="#ade3f9"/>
    <path d="M266.02 327.073v8.734h8.72v-8.734h-8.72" fill="#318b3a" originalFill="#318b3a"/>
    <path d="M274.74 327.073v-8.72h-8.72v8.72h8.72" fill="#287133" originalFill="#287133"/>
    <path d="M266.02 239.86h-17.44v8.72h26.16v-8.72h-8.72" fill="#8c3f1c" originalFill="#8c3f1c"/>
    <path d="M266.02 213.687v8.733h8.72v-8.733h-8.72" fill="#97482b" originalFill="#97482b"/>
    <path d="M274.74 196.247h8.72v-8.72h-17.44v8.72h8.72" fill="#3d1c1e" originalFill="#3d1c1e"/>
    <path d="M266.02 143.913v8.72h8.72v-8.72h-8.72" fill="#b9b7b6" originalFill="#b9b7b6"/>
    <path d="M274.74 100.313V91.58h-8.72v8.733h8.72" fill="#dddad9" originalFill="#dddad9"/>
    <path d="M274.74 91.58v-8.72h-8.72v8.72h8.72" fill="#606163" originalFill="#606163"/>
    <path d="M266.02 675.953v-8.72h-8.72v8.72h8.72" fill="#f9b11c" originalFill="#f9b11c"/>
    <path d="M266.02 492.793v-8.72h-17.44v8.72h17.44" fill="#662619" originalFill="#662619"/>
    <path d="M266.02 414.3v-8.72h-8.72v78.493h78.493v-8.72H266.02V414.3m-8.72-43.613v26.173h8.72v-43.613h-8.72v17.44" fill="#9fdaed" originalFill="#9fdaed"/>
    <path d="M257.3 344.527v8.72h17.44v-8.72H257.3" fill="#762f19" originalFill="#762f19"/>
    <path d="M257.3 335.807h-8.72v8.72h26.16v-8.72H257.3m0-122.12h-8.72v8.733h17.44v-8.733h-8.72" fill="#8c3f1c" originalFill="#8c3f1c"/>
    <path d="M266.02 204.967v-8.72h-8.72v8.72h8.72" fill="#3d1c1e" originalFill="#3d1c1e"/>
    <path d="M266.02 196.247v-8.72h-8.72v8.72h8.72" fill="#54252a" originalFill="#54252a"/>
    <path d="M266.02 187.527h17.44v-8.72H257.3v8.72h8.72" fill="#8c3f1c" originalFill="#8c3f1c"/>
    <path d="M204.967 143.913v-8.72h-8.72v-8.72h8.72v8.72h8.72v-8.72h8.72v8.72h-8.72v8.72zm17.44-34.88v8.72h-8.72v-8.72zm43.613 17.44v8.72h-8.72v-8.72zm0 26.16v-8.72h8.72v8.72h17.453v-8.72h-8.733v-8.72h-8.72v-8.72h8.72v8.72h8.733v-8.72h8.72v-17.44h-8.72v8.72h-8.733v-8.72h8.733v-8.72h-8.733V91.58h-8.72v8.733h-8.72v8.72h-8.72v8.72h-17.44v8.72h-8.733v-8.72h8.733v-8.72h17.44v-8.72h8.72V91.58h-52.333v8.733h-8.72v8.72h-8.72v8.72h-8.72v26.16h8.72v8.72h69.773" fill="#c9c8c6" originalFill="#c9c8c6"/>
    <path d="M266.02 135.193v-8.72h-8.72v8.72h8.72" fill="#b9b7b6" originalFill="#b9b7b6"/>
    <path d="M257.3 109.033h8.72v-8.72h-8.72v8.72" fill="#dddad9" originalFill="#dddad9"/>
    <path d="M257.3 475.353v-8.72h-8.72v17.44h8.72v-8.72" fill="#762f19" originalFill="#762f19"/>
    <path d="M257.3 457.913h-8.72v8.72h8.72v-8.72" fill="#662619" originalFill="#662619"/>
    <path d="M257.3 449.193v-8.733h-8.72v17.453h8.72v-8.72" fill="#762f19" originalFill="#762f19"/>
    <path d="M257.3 431.74v-8.72h-8.72v17.44h8.72v-8.72" fill="#662619" originalFill="#662619"/>
    <path d="M257.3 414.3v-8.72h-8.72v17.44h8.72v-8.72" fill="#762f19" originalFill="#762f19"/>
    <path d="M257.3 396.86h-8.72v8.72h8.72v-8.72" fill="#662619" originalFill="#662619"/>
    <path d="M257.3 388.127v-17.44h-8.72v26.173h8.72v-8.733" fill="#762f19" originalFill="#762f19"/>
    <path d="M248.58 361.967v8.72h8.72v-26.16h-8.72v17.44" fill="#662619" originalFill="#662619"/>
    <path d="M257.3 196.247v-8.72h-8.72v8.72h8.72" fill="#3d1c1e" originalFill="#3d1c1e"/>
    <path d="M248.58 187.527h8.72v-8.72h-8.72v8.72" fill="#97482b" originalFill="#97482b"/>
    <path d="M248.58 152.633v8.734h8.72v-8.734h-8.72" fill="#606163" originalFill="#606163"/>
    <path d="M257.3 91.58h8.72v-8.72h-17.44v8.72h8.72" fill="#484244" originalFill="#484244"/>
    <path d="M248.58 641.073v-8.72h-8.72v8.72h8.72" fill="#d6601d" originalFill="#d6601d"/>
    <path d="M239.86 353.247v148.266h8.72V335.807h-8.72v17.44" fill="#ad4c27" originalFill="#ad4c27"/>
    <path d="M248.58 318.353h43.613v-8.72H239.86v8.72h8.72" fill="#f79d0f" originalFill="#f79d0f"/>
    <path d="M239.86 239.86v8.72h8.72v-8.72h-8.72" fill="#70301d" originalFill="#70301d"/>
    <path d="M248.58 204.967h-8.72v17.453h8.72v-17.453" fill="#97482b" originalFill="#97482b"/>
    <path d="M248.58 196.247h-8.72v8.72h8.72v-8.72" fill="#8c3f1c" originalFill="#8c3f1c"/>
    <path d="M248.58 196.247v-8.72h-8.72v8.72h8.72" fill="#97482b" originalFill="#97482b"/>
    <path d="M248.58 178.807h8.72v-8.72h-26.173v8.72h17.453" fill="#484244" originalFill="#484244"/>
    <path d="M248.58 161.367h-8.72v8.72h8.72v-8.72" fill="#8a8b8a" originalFill="#8a8b8a"/>
    <path d="M248.58 152.633h-17.453v8.734h17.453v-8.734" fill="#484244" originalFill="#484244"/>
    <path d="M239.86 109.033v8.72h17.44v-8.72h-17.44" fill="#dddad9" originalFill="#dddad9"/>
    <path d="M248.58 91.58v-8.72h-8.72v8.72h8.72" fill="#606163" originalFill="#606163"/>
    <path d="M239.86 632.353h-8.733v8.72h8.733v-8.72" fill="#cc521f" originalFill="#cc521f"/>
    <path d="M239.86 492.793V335.807h-34.893v8.72h26.16v148.266h-52.32v8.72h61.053v-8.72" fill="#8c3f1c" originalFill="#8c3f1c"/>
    <path d="M231.127 239.86v8.72h8.733v-8.72h-8.733" fill="#97482b" originalFill="#97482b"/>
    <path d="M231.127 213.687h-17.44v8.733h26.173v-8.733h-8.733" fill="#8c3f1c" originalFill="#8c3f1c"/>
    <path d="M239.86 213.687v-8.72h-8.733v8.72h8.733" fill="#3d1c1e" originalFill="#3d1c1e"/>
    <path d="M231.127 126.473h8.733v-8.72h-8.733v8.72" fill="#dddad9" originalFill="#dddad9"/>
    <path d="M222.407 457.913v26.16h8.72v-34.88h-8.72v8.72" fill="#762f19" originalFill="#762f19"/>
    <path d="M222.407 440.46v8.733h8.72V431.74h-8.72v8.72" fill="#662619" originalFill="#662619"/>
    <path d="M222.407 414.3v17.44h8.72v-26.16h-8.72v8.72" fill="#762f19" originalFill="#762f19"/>
    <path d="M222.407 405.58h8.72v-8.72h-8.72v8.72" fill="#662619" originalFill="#662619"/>
    <path d="M222.407 370.687v26.173h8.72v-34.893h-8.72v8.72" fill="#762f19" originalFill="#762f19"/>
    <path d="M222.407 361.967h8.72v-17.44h-8.72v17.44" fill="#662619" originalFill="#662619"/>
    <path d="M231.127 318.353h8.733v-8.72h-17.453v8.72h8.72" fill="#e67f16" originalFill="#e67f16"/>
    <path d="M222.407 239.86h-8.72v8.72h17.44v-8.72h-8.72" fill="#8c3f1c" originalFill="#8c3f1c"/>
    <path d="M231.127 213.687v-8.72h-8.72v8.72h8.72" fill="#54252a" originalFill="#54252a"/>
    <path d="M231.127 196.247h-8.72v8.72h8.72v-8.72" fill="#3d1c1e" originalFill="#3d1c1e"/>
    <path d="M231.127 187.527h17.453v-8.72h-26.173v8.72h8.72" fill="#8c3f1c" originalFill="#8c3f1c"/>
    <path d="M222.407 152.633h-8.72v8.734h17.44v-8.734h-8.72" fill="#606163" originalFill="#606163"/>
    <path d="M213.687 484.073v8.72h17.44v-8.72h-17.44" fill="#662619" originalFill="#662619"/>
    <path d="M222.407 431.74v-26.16h-8.72v43.613h8.72V431.74m0-61.053h-8.72v17.44h8.72v-17.44" fill="#9fdaed" originalFill="#9fdaed"/>
    <path d="M222.407 361.967h-8.72v8.72h8.72v-8.72" fill="#c9edfb" originalFill="#c9edfb"/>
    <path d="M222.407 353.247v-8.72h-8.72v8.72h8.72" fill="#762f19" originalFill="#762f19"/>
    <path d="M222.407 204.967h-8.72v8.72h8.72v-8.72" fill="#3d1c1e" originalFill="#3d1c1e"/>
    <path d="M222.407 187.527v-8.72h-8.72v8.72h8.72" fill="#70301d" originalFill="#70301d"/>
    <path d="M222.407 126.473h-8.72v8.72h8.72v-8.72" fill="#dddad9" originalFill="#dddad9"/>
    <path d="M222.407 117.753v-8.72h-8.72v8.72h8.72" fill="#b9b7b6" originalFill="#b9b7b6"/>
    <path d="M204.967 614.9h8.72v-8.72h61.053v-8.72h-69.773v17.44" fill="#f68b1d" originalFill="#f68b1d"/>
    <path d="M204.967 501.513h-52.334v8.734h69.774v-8.734h-17.44" fill="#54252a" originalFill="#54252a"/>
    <path d="M204.967 484.073v8.72h8.72v-8.72h-8.72" fill="#762f19" originalFill="#762f19"/>
    <path d="M213.687 370.687h-8.72v17.44h-17.44v8.733h8.72v8.72h8.72v-8.72h8.72v-26.173" fill="#c9edfb" originalFill="#c9edfb"/>
    <path d="M213.687 353.247v-8.72h-8.72v8.72h8.72" fill="#662619" originalFill="#662619"/>
    <path d="M213.687 327.073h-8.72v8.734h8.72v-8.734" fill="#318b3a" originalFill="#318b3a"/>
    <path d="M213.687 327.073v-8.72h-8.72v8.72h8.72" fill="#287133" originalFill="#287133"/>
    <path d="M213.687 318.353h8.72v-8.72h-17.44v8.72h8.72" fill="#f79d0f" originalFill="#f79d0f"/>
    <path d="M204.967 239.86v8.72h8.72v-8.72h-8.72" fill="#70301d" originalFill="#70301d"/>
    <path d="M204.967 231.14h8.72v-8.72h-8.72v8.72" fill="#3d1c1e" originalFill="#3d1c1e"/>
    <path d="M204.967 213.687v8.733h8.72v-8.733h-8.72" fill="#97482b" originalFill="#97482b"/>
    <path d="M204.967 152.633v8.734h8.72v-8.734h-8.72" fill="#484244" originalFill="#484244"/>
    <path d="M204.967 135.193v8.72h8.72v-8.72h-8.72" fill="#dddad9" originalFill="#dddad9"/>
    <path d="M213.687 100.313V91.58h-8.72v8.733h8.72" fill="#b9b7b6" originalFill="#b9b7b6"/>
    <path d="M213.687 91.58h26.173v-8.72h-34.893v8.72h8.72" fill="#484244" originalFill="#484244"/>
    <path d="M196.247 675.953h8.72v-8.72h-8.72v8.72" fill="#f9b11c" originalFill="#f9b11c"/>
    <path d="M204.967 667.233h26.16v-8.72h-34.88V614.9h-8.72v52.333h17.44" fill="#d6601d" originalFill="#d6601d"/>
    <path d="M231.127 632.353h17.453v8.72h-17.453zm-34.88-8.72v34.88h34.88v8.72h8.733v-8.72h43.6V606.18h-69.773v8.72h-8.72v8.733h-8.72" fill="#e96d18" originalFill="#e96d18"/>
    <path d="M204.967 623.633V614.9h-8.72v8.733h8.72" fill="#f68b1d" originalFill="#f68b1d"/>
    <path d="M204.967 606.18h-8.72v8.72h8.72v-8.72" fill="#e96d18" originalFill="#e96d18"/>
    <path d="M196.247 484.073h-8.72v8.72h17.44v-8.72h-8.72" fill="#662619" originalFill="#662619"/>
    <path d="M204.967 431.74v-8.72h-8.72v-8.72h-8.72v17.44h17.44" fill="#c9edfb" originalFill="#c9edfb"/>
    <path d="M204.967 388.127v-17.44h8.72v-8.72h-17.44v26.16h8.72" fill="#ade3f9" originalFill="#ade3f9"/>
    <path d="M204.967 361.967h17.44v-8.72h-26.16v8.72h8.72" fill="#9fdaed" originalFill="#9fdaed"/>
    <path d="M204.967 344.527h-8.72v8.72h8.72v-8.72" fill="#762f19" originalFill="#762f19"/>
    <path d="M196.247 327.073v8.734h8.72v-8.734h-8.72" fill="#3aa83f" originalFill="#3aa83f"/>
    <path d="M204.967 318.353v-8.72h-8.72v8.72h8.72" fill="#e67f16" originalFill="#e67f16"/>
    <path d="M196.247 239.86v8.72h8.72v-8.72h-8.72m0-26.173h-8.72v8.733h17.44v-8.733h-8.72m8.72-26.16h8.72v-8.72h-17.44v8.72h8.72" fill="#8c3f1c" originalFill="#8c3f1c"/>
    <path d="M196.247 152.633v8.734h8.72v-8.734h-8.72" fill="#606163" originalFill="#606163"/>
    <path d="M196.247 126.473v8.72h8.72v-8.72h-8.72" fill="#dddad9" originalFill="#dddad9"/>
    <path d="M196.247 109.033h8.72v-8.72h-8.72v8.72" fill="#b9b7b6" originalFill="#b9b7b6"/>
    <path d="M204.967 100.313V91.58h-8.72v8.733h8.72" fill="#c9c8c6" originalFill="#c9c8c6"/>
    <path d="M204.967 91.58v-8.72h-8.72v8.72h8.72" fill="#535355" originalFill="#535355"/>
    <path d="M196.247 675.953v-8.72h-8.72v8.72h8.72" fill="#cc521f" originalFill="#cc521f"/>
    <path d="M196.247 388.127v-8.72h-8.72v8.72h8.72" fill="#9fdaed" originalFill="#9fdaed"/>
    <path d="M196.247 353.247h-8.72v17.44h8.72v-17.44" fill="#3aa83f" originalFill="#3aa83f"/>
    <path d="M187.527 239.86v8.72h8.72v-8.72h-8.72" fill="#70301d" originalFill="#70301d"/>
    <path d="M196.247 187.527v-8.72h-8.72v8.72h8.72" fill="#97482b" originalFill="#97482b"/>
    <path d="M187.527 152.633v8.734h8.72v-8.734h-8.72" fill="#484244" originalFill="#484244"/>
    <path d="M187.527 143.913v8.72h8.72v-8.72h-8.72" fill="#dddad9" originalFill="#dddad9"/>
    <path d="M196.247 109.033h-8.72v8.72h8.72v-8.72" fill="#b9b7b6" originalFill="#b9b7b6"/>
    <path d="M196.247 100.313h-8.72v8.72h8.72v-8.72" fill="#c9c8c6" originalFill="#c9c8c6"/>
    <path d="M196.247 91.58h-8.72v8.733h8.72V91.58" fill="#b9b7b6" originalFill="#b9b7b6"/>
    <path d="M196.247 91.58v-8.72h-8.72v8.72h8.72" fill="#606163" originalFill="#606163"/>
    <path d="M187.527 675.953v-8.72h-8.72v8.72h8.72" fill="#f9b11c" originalFill="#f9b11c"/>
    <path d="M187.527 606.18v8.72h8.72v-8.72h8.72v-8.72h-26.16v8.72h8.72" fill="#fff" originalFill="#fff"/>
    <path d="M178.807 484.073v8.72h8.72v-8.72h-8.72" fill="#762f19" originalFill="#762f19"/>
    <path d="M187.527 405.58v-8.72h-8.72v8.72h8.72" fill="#c9edfb" originalFill="#c9edfb"/>
    <path d="M187.527 388.127h-8.72v8.733h8.72v-8.733" fill="#9fdaed" originalFill="#9fdaed"/>
    <path d="M187.527 379.407h-8.72v8.72h8.72v-8.72" fill="#3aa83f" originalFill="#3aa83f"/>
    <path d="M187.527 327.073v-8.72h-8.72v8.72h8.72" fill="#287133" originalFill="#287133"/>
    <path d="M178.807 239.86h-17.454v-17.44h-8.72v17.44h-17.44v8.72h52.334v-8.72h-8.72" fill="#8c3f1c" originalFill="#8c3f1c"/>
    <path d="M178.807 231.14h8.72v-8.72h-8.72v8.72" fill="#3d1c1e" originalFill="#3d1c1e"/>
    <path d="M178.807 213.687v8.733h8.72v-8.733h-8.72" fill="#97482b" originalFill="#97482b"/>
    <path d="M187.527 196.247v-8.72h-8.72v8.72h8.72" fill="#3d1c1e" originalFill="#3d1c1e"/>
    <path d="M187.527 143.913h-8.72v17.454h8.72v-17.454" fill="#606163" originalFill="#606163"/>
    <path d="M187.527 135.193v-26.16h-8.72v34.88h8.72v-8.72" fill="#484244" originalFill="#484244"/>
    <path d="M187.527 100.313h-8.72v8.72h8.72v-8.72" fill="#606163" originalFill="#606163"/>
    <path d="M187.527 91.58h-8.72v8.733h8.72V91.58" fill="#484244" originalFill="#484244"/>
    <path d="M187.527 82.86h-8.72v8.72h8.72v-8.72" fill="#535355" originalFill="#535355"/>
    <path d="M178.807 658.513h-8.734v8.72h8.734v-8.72" fill="#d6601d" originalFill="#d6601d"/>
    <path d="M170.073 484.073v8.72h8.734v-8.72h-8.734" fill="#662619" originalFill="#662619"/>
    <path d="M178.807 466.633v-8.72h17.44v-8.72h8.72v-8.733h-26.16v8.733h-8.734v8.72h-8.72v8.72h17.454" fill="#c9edfb" originalFill="#c9edfb"/>
    <path d="M178.807 405.58v-8.72h-8.734v8.72h8.734" fill="#9fdaed" originalFill="#9fdaed"/>
    <path d="M170.073 370.687v8.72h8.734v-8.72h-8.734m0-34.88h8.734v-8.734h-8.734v8.734" fill="#3aa83f" originalFill="#3aa83f"/>
    <path d="M178.807 318.353h17.44v-8.72h-26.174v8.72h8.734" fill="#f79d0f" originalFill="#f79d0f"/>
    <path d="M170.073 231.14v8.72h8.734v-8.72h-8.734" fill="#3d1c1e" originalFill="#3d1c1e"/>
    <path d="M170.073 222.42v8.72h8.734v-8.72h-8.734" fill="#54252a" originalFill="#54252a"/>
    <path d="M178.807 222.42v-8.733h-17.454v8.733h17.454" fill="#8c3f1c" originalFill="#8c3f1c"/>
    <path d="M178.807 213.687h34.88v-8.72h8.72v-8.72h8.72v8.72h8.733v-17.44h-52.333v8.72h-8.72v8.72h-8.734v-8.72h-8.72v17.44h17.454" fill="#54252a" originalFill="#54252a"/>
    <path d="M170.073 204.967h8.734v-8.72h-8.734v8.72" fill="#3d1c1e" originalFill="#3d1c1e"/>
    <path d="M178.807 196.247v-8.72h-8.734v8.72h8.734" fill="#54252a" originalFill="#54252a"/>
    <path d="M178.807 187.527h8.72v-8.72h-17.454v8.72h8.734" fill="#8c3f1c" originalFill="#8c3f1c"/>
    <path d="M161.353 492.793v8.72h17.454v-8.72h-17.454" fill="#ad4c27" originalFill="#ad4c27"/>
    <path d="M170.073 484.073h-17.44v8.72h17.44v-8.72" fill="#762f19" originalFill="#762f19"/>
    <path d="M170.073 405.58h-8.72v8.72h8.72v-8.72" fill="#9fdaed" originalFill="#9fdaed"/>
    <path d="M170.073 396.86h-8.72v8.72h8.72v-8.72" fill="#3aa83f" originalFill="#3aa83f"/>
    <path d="M161.353 231.14v8.72h8.72v-8.72h-8.72" fill="#54252a" originalFill="#54252a"/>
    <path d="M170.073 222.42h-8.72v8.72h8.72v-8.72m0-34.893h-8.72v8.72h8.72v-8.72" fill="#3d1c1e" originalFill="#3d1c1e"/>
    <path d="M170.073 187.527v-8.72h-8.72v8.72h8.72" fill="#97482b" originalFill="#97482b"/>
    <path d="M161.353 667.233v-8.72h-17.44v8.72h17.44" fill="#d6601d" originalFill="#d6601d"/>
    <path d="M161.353 492.793h-8.72v8.72h8.72v-8.72" fill="#8c3f1c" originalFill="#8c3f1c"/>
    <path d="M152.633 466.633v8.72h8.72v-8.72h-8.72m0-34.893v8.72h-8.72v17.453h8.72v-8.72h8.72v-8.733h8.72v-8.72h8.734v-8.72h-17.454v8.72h-8.72" fill="#c9edfb" originalFill="#c9edfb"/>
    <path d="M152.633 431.74h8.72v-8.72h-8.72v8.72" fill="#ade3f9" originalFill="#ade3f9"/>
    <path d="M161.353 423.02v-8.72h-8.72v8.72h8.72" fill="#9fdaed" originalFill="#9fdaed"/>
    <path d="M161.353 327.073v-8.72h-8.72v8.72h8.72" fill="#287133" originalFill="#287133"/>
    <path d="M161.353 318.353h8.72v-8.72h-17.44v8.72h8.72" fill="#e67f16" originalFill="#e67f16"/>
    <path d="M152.633 213.687v8.733h8.72v-8.733h-8.72" fill="#97482b" originalFill="#97482b"/>
    <path d="M152.633 641.073v-8.72h-8.72v8.72h8.72" fill="#d6601d" originalFill="#d6601d"/>
    <path d="M143.913 492.793v8.72h8.72v-8.72h-8.72" fill="#ad4c27" originalFill="#ad4c27"/>
    <path d="M152.633 492.793v-8.72h-17.44v8.72h17.44" fill="#662619" originalFill="#662619"/>
    <path d="M152.633 484.073h69.774v-26.16h-8.72v17.44h-78.494v8.72h17.44" fill="#9fdaed" originalFill="#9fdaed"/>
    <path d="M187.527 423.02v-8.72h8.72v8.72h8.72v8.72h-17.44zm-34.894 52.333v-8.72h8.72v-8.72h8.72v-8.72h8.734v-8.733h26.16v8.733h-8.72v8.72h-17.44v8.72h-17.454v8.72h52.334v-17.44h8.72v-8.72h-8.72V405.58h8.72v-17.453h-8.72v8.733h-8.72v8.72h-8.72v-8.72h-8.72v8.72h-17.454v8.72h-8.72v8.72h17.454v8.72h-8.734v8.72h-8.72v8.733h-8.72v8.72h-8.72V440.46h-8.72v8.733h-8.72v17.44h8.72v8.72h17.44" fill="#ade3f9" originalFill="#ade3f9"/>
    <path d="M152.633 431.74h-8.72v8.72h8.72v-8.72" fill="#ade3f9" originalFill="#ade3f9"/>
    <path d="M152.633 423.02h-8.72v8.72h8.72v-8.72" fill="#9fdaed" originalFill="#9fdaed"/>
    <path d="M152.633 423.02v-8.72h-8.72v8.72h8.72m-8.72-34.893v8.733h8.72v-8.733h-8.72m0-8.72h8.72v-8.72h-8.72v8.72" fill="#3aa83f" originalFill="#3aa83f"/>
    <path d="M143.913 231.14h-17.44v8.72h26.16v-17.44h-8.72v8.72" fill="#4ba490" originalFill="#4ba490"/>
    <path d="M143.913 213.687v-17.44h-8.72v-8.72h-8.72v8.72h-8.72v8.72h-8.733v8.72h8.733v8.733h-8.733v-8.733h-8.72v8.733h-8.72v8.72h26.173v8.72h8.72v-8.72h17.44v-8.72h8.72v-8.733h-8.72" fill="#61bea8" originalFill="#61bea8"/>
    <path d="M143.913 632.353h-8.72v8.72h8.72v-8.72" fill="#cc521f" originalFill="#cc521f"/>
    <path d="M135.193 510.247h8.72v-8.734h-8.72v8.734" fill="#54252a" originalFill="#54252a"/>
    <path d="M135.193 492.793v8.72h8.72v-8.72h-8.72" fill="#8c3f1c" originalFill="#8c3f1c"/>
    <path d="M135.193 431.74v8.72h8.72v-8.72h-8.72" fill="#9fdaed" originalFill="#9fdaed"/>
    <path d="M143.913 431.74V414.3h-8.72v8.72h-8.72v8.72h17.44" fill="#318b3a" originalFill="#318b3a"/>
    <path d="M143.913 405.58h-8.72v8.72h8.72v-8.72m-8.72-78.507v8.734h17.44v-8.734h-17.44" fill="#3aa83f" originalFill="#3aa83f"/>
    <path d="M143.913 196.247v17.44h8.72v-26.16h-17.44v8.72h8.72" fill="#4ba490" originalFill="#4ba490"/>
    <path d="M126.473 675.953h8.72v-8.72h-8.72v8.72" fill="#f9b11c" originalFill="#f9b11c"/>
    <path d="M126.473 466.633v8.72h8.72v-8.72h-8.72m8.72-26.173h-8.72v8.733h8.72v-8.733" fill="#9fdaed" originalFill="#9fdaed"/>
    <path d="M135.193 431.74h-8.72v8.72h8.72v-8.72" fill="#3aa83f" originalFill="#3aa83f"/>
    <path d="M135.193 414.3h-8.72v8.72h8.72v-8.72m0-26.173h-8.72v8.733h8.72v-8.733m0-61.054v-8.72h-8.72v8.72h8.72" fill="#287133" originalFill="#287133"/>
    <path d="M135.193 318.353h17.44v-8.72h-26.16v8.72h8.72" fill="#f79d0f" originalFill="#f79d0f"/>
    <path d="M126.473 239.86v8.72h8.72v-8.72h-8.72" fill="#97482b" originalFill="#97482b"/>
    <path d="M135.193 187.527h17.44v26.16h8.72v-34.88h-34.88v8.72h8.72" fill="#8c3f1c" originalFill="#8c3f1c"/>
    <path d="M126.473 667.233h8.72v-8.72H109.02v8.72h17.453" fill="#d6601d" originalFill="#d6601d"/>
    <path d="M117.753 484.073h8.72v-8.72h-8.72v8.72" fill="#287133" originalFill="#287133"/>
    <path d="M117.753 466.633v8.72h8.72v-8.72h-8.72" fill="#318b3a" originalFill="#318b3a"/>
    <path d="M126.473 457.913v-8.72h-8.72v17.44h8.72v-8.72" fill="#9fdaed" originalFill="#9fdaed"/>
    <path d="M117.753 431.74v8.72h8.72v-8.72h-8.72" fill="#318b3a" originalFill="#318b3a"/>
    <path d="M126.473 396.86h-8.72v8.72h8.72v-8.72" fill="#287133" originalFill="#287133"/>
    <path d="M126.473 318.353v-8.72h-8.72v8.72h8.72" fill="#e67f16" originalFill="#e67f16"/>
    <path d="M117.753 239.86h-8.733v8.72h17.453v-8.72h-8.72" fill="#8c3f1c" originalFill="#8c3f1c"/>
    <path d="M126.473 187.527v-8.72h-8.72v8.72h8.72" fill="#97482b" originalFill="#97482b"/>
    <path d="M117.753 667.233h-8.733v8.72h8.733v-8.72" fill="#f9b11c" originalFill="#f9b11c"/>
    <path d="M109.02 614.9h8.733v-8.72h61.054v-8.72H109.02v17.44" fill="#f68b1d" originalFill="#f68b1d"/>
    <path d="M117.753 501.513h-8.733v8.734h8.733v-8.734" fill="#54252a" originalFill="#54252a"/>
    <path d="M109.02 492.793v8.72h8.733v-8.72h-8.733m0-17.44h8.733v-17.44H100.3v8.72h8.72v8.72" fill="#287133" originalFill="#287133"/>
    <path d="M109.02 449.193v8.72h8.733v-8.72h-8.733" fill="#f79d0f" originalFill="#f79d0f"/>
    <path d="M117.753 449.193h8.72v-8.733h-8.72v-8.72h8.72v-8.72h-8.72v-17.44h-8.733v8.72h-8.72v8.72h8.72v17.44h-8.72v8.733h17.453" fill="#287133" originalFill="#287133"/>
    <path d="M143.913 396.86v-8.733h8.72v8.733zm8.72-17.453h-8.72v-8.72h8.72zM109.02 405.58h8.733v-8.72h8.72v-8.733h8.72v8.733h-8.72v8.72h-8.72v17.44h8.72v-8.72h8.72v-8.72h8.72v8.72h17.44v-17.44h17.454v-17.453h-8.734v-8.72h8.734v8.72h17.44v-8.72h-8.72v-17.44h8.72v-8.72h8.72v-8.72h-8.72v-8.734h-17.44v8.734h-8.734v-8.734h-17.44v8.734h-17.44v-8.734h-17.44v8.734h-8.733v-8.734h-8.72v69.787h8.72v8.72" fill="#318b3a" originalFill="#318b3a"/>
    <path d="M117.753 335.807v-8.734h-8.733v8.734h8.733" fill="#3aa83f" originalFill="#3aa83f"/>
    <path d="M117.753 318.353v-8.72H100.3v8.72h17.453" fill="#f79d0f" originalFill="#f79d0f"/>
    <path d="M109.02 231.14H91.58v-8.72h-8.72v17.44h34.893v-8.72h-8.733" fill="#4ba490" originalFill="#4ba490"/>
    <path d="M117.753 222.42v-8.733h-8.733v8.733h8.733m-8.733-17.453h8.733v-8.72h-8.733v8.72" fill="#7bd2b8" originalFill="#7bd2b8"/>
    <path d="M100.3 728.287h8.72v-8.72h-8.72v8.72" fill="#8c3f1c" originalFill="#8c3f1c"/>
    <path d="M100.3 649.793v8.72h8.72v-8.72h-8.72m0-17.44v8.72h8.72v-8.72h-8.72" fill="#f68b1d" originalFill="#f68b1d"/>
    <path d="M135.193 632.353h17.44v8.72h-17.44zm-26.173 0v26.16h26.173v8.72h8.72v-8.72h17.44v8.72h8.72v-8.72h8.734v8.72h8.72V606.18h-69.774v8.72h-8.733v8.733h-8.72v8.72h8.72" fill="#e96d18" originalFill="#e96d18"/>
    <path d="M109.02 614.9h-8.72v8.733h8.72V614.9" fill="#f68b1d" originalFill="#f68b1d"/>
    <path d="M109.02 606.18h-8.72v8.72h8.72v-8.72" fill="#e96d18" originalFill="#e96d18"/>
    <path d="M109.02 597.46h-8.72v8.72h8.72v-8.72" fill="#fff" originalFill="#fff"/>
    <path d="M109.02 492.793h8.733v17.454h17.44v-34.894h-8.72v8.72h-8.72v-8.72h-8.733v8.72h-8.72v26.174h8.72v-17.454" fill="#318b3a" originalFill="#318b3a"/>
    <path d="M109.02 475.353h-8.72v8.72h8.72v-8.72" fill="#287133" originalFill="#287133"/>
    <path d="M109.02 466.633h-8.72v8.72h8.72v-8.72" fill="#318b3a" originalFill="#318b3a"/>
    <path d="M109.02 449.193h-8.72v8.72h8.72v-8.72" fill="#e67f16" originalFill="#e67f16"/>
    <path d="M109.02 431.74v-8.72h-8.72v17.44h8.72v-8.72m0-26.16h-8.72v8.72h8.72v-8.72" fill="#318b3a" originalFill="#318b3a"/>
    <path d="M109.02 396.86h-8.72v8.72h8.72v-8.72m0-69.787v-8.72h-8.72v8.72h8.72" fill="#287133" originalFill="#287133"/>
    <path d="M100.3 239.86v8.72h8.72v-8.72h-8.72" fill="#70301d" originalFill="#70301d"/>
    <path d="M100.3 213.687h8.72v-8.72h-8.72v8.72" fill="#7bd2b8" originalFill="#7bd2b8"/>
    <path d="M100.3 196.247v8.72h8.72v-8.72h-8.72" fill="#61bea8" originalFill="#61bea8"/>
    <path d="M109.02 196.247h17.453v-8.72H100.3v8.72h8.72" fill="#4ba490" originalFill="#4ba490"/>
    <path d="M100.3 710.847h165.72v-8.72H74.14v8.72h26.16" fill="#ee6f17" originalFill="#ee6f17"/>
    <path d="M100.3 632.353v-8.72h-8.72v8.72h8.72" fill="#f68b1d" originalFill="#f68b1d"/>
    <path d="M91.58 492.793v8.72h8.72v-8.72h-8.72" fill="#8c3f1c" originalFill="#8c3f1c"/>
    <path d="M91.58 309.633v8.72h8.72v-8.72h-8.72" fill="#e67f16" originalFill="#e67f16"/>
    <path d="M91.58 239.86v8.72h8.72v-8.72h-8.72" fill="#8c3f1c" originalFill="#8c3f1c"/>
    <path d="M91.58 222.42h8.72v-8.733h-8.72v8.733" fill="#7bd2b8" originalFill="#7bd2b8"/>
    <path d="M91.58 204.967v8.72h8.72v-8.72h-8.72" fill="#61bea8" originalFill="#61bea8"/>
    <path d="M100.3 196.247h-8.72v8.72h8.72v-8.72" fill="#7bd2b8" originalFill="#7bd2b8"/>
    <path d="M100.3 196.247v-8.72h-8.72v8.72h8.72" fill="#61bea8" originalFill="#61bea8"/>
    <path d="M82.86 641.073h8.72v-8.72h-8.72v8.72" fill="#f68b1d" originalFill="#f68b1d"/>
    <path d="M82.86 239.86h-8.72v8.72h17.44v-8.72h-8.72" fill="#97482b" originalFill="#97482b"/>
    <path d="M91.58 213.687h-8.72v8.733h8.72v-8.733" fill="#61bea8" originalFill="#61bea8"/>
    <path d="M91.58 204.967v-17.44h-8.72v26.16h8.72v-8.72" fill="#4ba490" originalFill="#4ba490"/>
    <path d="M82.86 693.407v-34.894h-8.72v43.613h8.72v-8.72m0-52.333h-8.72v8.72h8.72v-8.72" fill="#f68b1d" originalFill="#f68b1d"/>
    <path d="M82.86 632.353h8.72V614.9h-8.72v8.733h-8.72v17.44h8.72v-8.72" fill="#f57a14" originalFill="#f57a14"/>
    <path d="M82.86 614.9h-8.72v8.733h8.72V614.9" fill="#f68b1d" originalFill="#f68b1d"/>
    <path d="M82.86 231.14h-8.72v8.72h8.72v-8.72" fill="#70301d" originalFill="#70301d"/>
    <path d="M82.86 222.42v-17.453h-8.72v26.173h8.72v-8.72" fill="#8c3f1c" originalFill="#8c3f1c"/>
    <path d="M82.86 196.247h-8.72v8.72h8.72v-8.72" fill="#70301d" originalFill="#70301d"/>
    <path d="M82.86 187.527h34.893v-8.72H74.14v17.44h8.72v-8.72" fill="#8c3f1c" originalFill="#8c3f1c"/>
</svg>